solid glidewheel_encoder_Default_sldprt
   facet normal -1.000000e+000 0.000000e+000 0.000000e+000
      outer loop
         vertex 0.000000e+000 3.100000e+001 0.000000e+000
         vertex 0.000000e+000 5.000000e+000 0.000000e+000
         vertex 0.000000e+000 3.100000e+001 7.000000e+000
      endloop
   endfacet
   facet normal -1.000000e+000 0.000000e+000 0.000000e+000
      outer loop
         vertex 0.000000e+000 3.100000e+001 7.000000e+000
         vertex 0.000000e+000 5.000000e+000 0.000000e+000
         vertex 0.000000e+000 5.000000e+000 7.000000e+000
      endloop
   endfacet
   facet normal 0.000000e+000 -1.000000e+000 0.000000e+000
      outer loop
         vertex 5.000000e+000 0.000000e+000 0.000000e+000
         vertex 3.500000e+001 0.000000e+000 0.000000e+000
         vertex 5.000000e+000 0.000000e+000 7.000000e+000
      endloop
   endfacet
   facet normal 0.000000e+000 -1.000000e+000 0.000000e+000
      outer loop
         vertex 5.000000e+000 0.000000e+000 7.000000e+000
         vertex 3.500000e+001 0.000000e+000 0.000000e+000
         vertex 3.500000e+001 0.000000e+000 7.000000e+000
      endloop
   endfacet
   facet normal 1.000000e+000 0.000000e+000 0.000000e+000
      outer loop
         vertex 4.000000e+001 3.100000e+001 7.000000e+000
         vertex 4.000000e+001 5.000000e+000 7.000000e+000
         vertex 4.000000e+001 3.100000e+001 0.000000e+000
      endloop
   endfacet
   facet normal 1.000000e+000 0.000000e+000 0.000000e+000
      outer loop
         vertex 4.000000e+001 3.100000e+001 0.000000e+000
         vertex 4.000000e+001 5.000000e+000 7.000000e+000
         vertex 4.000000e+001 5.000000e+000 0.000000e+000
      endloop
   endfacet
   facet normal 0.000000e+000 1.000000e+000 0.000000e+000
      outer loop
         vertex 2.100000e+001 5.000000e+001 0.000000e+000
         vertex 1.900000e+001 5.000000e+001 0.000000e+000
         vertex 2.100000e+001 5.000000e+001 7.000000e+000
      endloop
   endfacet
   facet normal 0.000000e+000 1.000000e+000 0.000000e+000
      outer loop
         vertex 2.100000e+001 5.000000e+001 7.000000e+000
         vertex 1.900000e+001 5.000000e+001 0.000000e+000
         vertex 1.900000e+001 5.000000e+001 7.000000e+000
      endloop
   endfacet
   facet normal 0.000000e+000 0.000000e+000 1.000000e+000
      outer loop
         vertex 1.767178e+001 3.151921e+001 7.000000e+000
         vertex 1.194680e-001 3.312733e+001 7.000000e+000
         vertex 1.763780e+001 3.112000e+001 7.000000e+000
      endloop
   endfacet
   facet normal 0.000000e+000 0.000000e+000 1.000000e+000
      outer loop
         vertex 1.763780e+001 3.112000e+001 7.000000e+000
         vertex 1.194680e-001 3.312733e+001 7.000000e+000
         vertex 0.000000e+000 3.100000e+001 7.000000e+000
      endloop
   endfacet
   facet normal 0.000000e+000 0.000000e+000 1.000000e+000
      outer loop
         vertex 1.763780e+001 3.112000e+001 7.000000e+000
         vertex 0.000000e+000 3.100000e+001 7.000000e+000
         vertex 1.767178e+001 3.072079e+001 7.000000e+000
      endloop
   endfacet
   facet normal 0.000000e+000 0.000000e+000 1.000000e+000
      outer loop
         vertex 2.235369e+001 3.091967e+001 7.000000e+000
         vertex 4.000000e+001 3.100000e+001 7.000000e+000
         vertex 2.235369e+001 3.132033e+001 7.000000e+000
      endloop
   endfacet
   facet normal 0.000000e+000 0.000000e+000 1.000000e+000
      outer loop
         vertex 2.235369e+001 3.132033e+001 7.000000e+000
         vertex 4.000000e+001 3.100000e+001 7.000000e+000
         vertex 3.988053e+001 3.312733e+001 7.000000e+000
      endloop
   endfacet
   facet normal 0.000000e+000 0.000000e+000 1.000000e+000
      outer loop
         vertex 2.235369e+001 3.132033e+001 7.000000e+000
         vertex 3.988053e+001 3.312733e+001 7.000000e+000
         vertex 2.228598e+001 3.171522e+001 7.000000e+000
      endloop
   endfacet
   facet normal 0.000000e+000 0.000000e+000 1.000000e+000
      outer loop
         vertex 1.793777e+001 3.227203e+001 7.000000e+000
         vertex 1.881592e+000 3.924379e+001 7.000000e+000
         vertex 1.777273e+001 3.190694e+001 7.000000e+000
      endloop
   endfacet
   facet normal 0.000000e+000 0.000000e+000 1.000000e+000
      outer loop
         vertex 1.777273e+001 3.190694e+001 7.000000e+000
         vertex 1.881592e+000 3.924379e+001 7.000000e+000
         vertex 1.066217e+000 3.727530e+001 7.000000e+000
      endloop
   endfacet
   facet normal 0.000000e+000 0.000000e+000 1.000000e+000
      outer loop
         vertex 1.777273e+001 3.190694e+001 7.000000e+000
         vertex 1.066217e+000 3.727530e+001 7.000000e+000
         vertex 1.767178e+001 3.151921e+001 7.000000e+000
      endloop
   endfacet
   facet normal 0.000000e+000 0.000000e+000 1.000000e+000
      outer loop
         vertex 1.767178e+001 3.151921e+001 7.000000e+000
         vertex 1.066217e+000 3.727530e+001 7.000000e+000
         vertex 4.763696e-001 3.522790e+001 7.000000e+000
      endloop
   endfacet
   facet normal 0.000000e+000 0.000000e+000 1.000000e+000
      outer loop
         vertex 1.767178e+001 3.151921e+001 7.000000e+000
         vertex 4.763696e-001 3.522790e+001 7.000000e+000
         vertex 1.194680e-001 3.312733e+001 7.000000e+000
      endloop
   endfacet
   facet normal 0.000000e+000 0.000000e+000 1.000000e+000
      outer loop
         vertex 1.843935e+001 3.289324e+001 7.000000e+000
         vertex 5.564971e+000 4.443503e+001 7.000000e+000
         vertex 1.816212e+001 3.260398e+001 7.000000e+000
      endloop
   endfacet
   facet normal 0.000000e+000 0.000000e+000 1.000000e+000
      outer loop
         vertex 1.816212e+001 3.260398e+001 7.000000e+000
         vertex 5.564971e+000 4.443503e+001 7.000000e+000
         vertex 4.145202e+000 4.284631e+001 7.000000e+000
      endloop
   endfacet
   facet normal 0.000000e+000 0.000000e+000 1.000000e+000
      outer loop
         vertex 1.816212e+001 3.260398e+001 7.000000e+000
         vertex 4.145202e+000 4.284631e+001 7.000000e+000
         vertex 1.793777e+001 3.227203e+001 7.000000e+000
      endloop
   endfacet
   facet normal 0.000000e+000 0.000000e+000 1.000000e+000
      outer loop
         vertex 1.793777e+001 3.227203e+001 7.000000e+000
         vertex 4.145202e+000 4.284631e+001 7.000000e+000
         vertex 2.912240e+000 4.110861e+001 7.000000e+000
      endloop
   endfacet
   facet normal 0.000000e+000 0.000000e+000 1.000000e+000
      outer loop
         vertex 1.793777e+001 3.227203e+001 7.000000e+000
         vertex 2.912240e+000 4.110861e+001 7.000000e+000
         vertex 1.881592e+000 3.924379e+001 7.000000e+000
      endloop
   endfacet
   facet normal 0.000000e+000 0.000000e+000 1.000000e+000
      outer loop
         vertex 1.876148e+001 3.313148e+001 7.000000e+000
         vertex 8.891391e+000 4.708776e+001 7.000000e+000
         vertex 1.843935e+001 3.289324e+001 7.000000e+000
      endloop
   endfacet
   facet normal 0.000000e+000 0.000000e+000 1.000000e+000
      outer loop
         vertex 1.843935e+001 3.289324e+001 7.000000e+000
         vertex 8.891391e+000 4.708776e+001 7.000000e+000
         vertex 7.153694e+000 4.585480e+001 7.000000e+000
      endloop
   endfacet
   facet normal 0.000000e+000 0.000000e+000 1.000000e+000
      outer loop
         vertex 1.843935e+001 3.289324e+001 7.000000e+000
         vertex 7.153694e+000 4.585480e+001 7.000000e+000
         vertex 5.564971e+000 4.443503e+001 7.000000e+000
      endloop
   endfacet
   facet normal 0.000000e+000 0.000000e+000 1.000000e+000
      outer loop
         vertex 1.950233e+001 3.342918e+001 7.000000e+000
         vertex 1.477210e+001 4.952363e+001 7.000000e+000
         vertex 1.911924e+001 3.331186e+001 7.000000e+000
      endloop
   endfacet
   facet normal 0.000000e+000 0.000000e+000 1.000000e+000
      outer loop
         vertex 1.911924e+001 3.331186e+001 7.000000e+000
         vertex 1.477210e+001 4.952363e+001 7.000000e+000
         vertex 1.272470e+001 4.893378e+001 7.000000e+000
      endloop
   endfacet
   facet normal 0.000000e+000 0.000000e+000 1.000000e+000
      outer loop
         vertex 1.911924e+001 3.331186e+001 7.000000e+000
         vertex 1.272470e+001 4.893378e+001 7.000000e+000
         vertex 1.876148e+001 3.313148e+001 7.000000e+000
      endloop
   endfacet
   facet normal 0.000000e+000 0.000000e+000 1.000000e+000
      outer loop
         vertex 1.876148e+001 3.313148e+001 7.000000e+000
         vertex 1.272470e+001 4.893378e+001 7.000000e+000
         vertex 1.075621e+001 4.811841e+001 7.000000e+000
      endloop
   endfacet
   facet normal 0.000000e+000 0.000000e+000 1.000000e+000
      outer loop
         vertex 1.876148e+001 3.313148e+001 7.000000e+000
         vertex 1.075621e+001 4.811841e+001 7.000000e+000
         vertex 8.891391e+000 4.708776e+001 7.000000e+000
      endloop
   endfacet
   facet normal 0.000000e+000 0.000000e+000 1.000000e+000
      outer loop
         vertex 2.106347e+001 3.322927e+001 7.000000e+000
         vertex 2.727530e+001 4.893378e+001 7.000000e+000
         vertex 2.069171e+001 3.337866e+001 7.000000e+000
      endloop
   endfacet
   facet normal 0.000000e+000 0.000000e+000 1.000000e+000
      outer loop
         vertex 2.069171e+001 3.337866e+001 7.000000e+000
         vertex 2.727530e+001 4.893378e+001 7.000000e+000
         vertex 2.522790e+001 4.952363e+001 7.000000e+000
      endloop
   endfacet
   facet normal 0.000000e+000 0.000000e+000 1.000000e+000
      outer loop
         vertex 2.069171e+001 3.337866e+001 7.000000e+000
         vertex 2.522790e+001 4.952363e+001 7.000000e+000
         vertex 2.030004e+001 3.346307e+001 7.000000e+000
      endloop
   endfacet
   facet normal 0.000000e+000 0.000000e+000 1.000000e+000
      outer loop
         vertex 2.235369e+001 3.091967e+001 7.000000e+000
         vertex 2.228598e+001 3.052478e+001 7.000000e+000
         vertex 4.000000e+001 3.100000e+001 7.000000e+000
      endloop
   endfacet
   facet normal 0.000000e+000 0.000000e+000 1.000000e+000
      outer loop
         vertex 4.000000e+001 3.100000e+001 7.000000e+000
         vertex 2.228598e+001 3.052478e+001 7.000000e+000
         vertex 2.215250e+001 3.014701e+001 7.000000e+000
      endloop
   endfacet
   facet normal 0.000000e+000 0.000000e+000 1.000000e+000
      outer loop
         vertex 4.000000e+001 3.100000e+001 7.000000e+000
         vertex 2.215250e+001 3.014701e+001 7.000000e+000
         vertex 4.000000e+001 5.000000e+000 7.000000e+000
      endloop
   endfacet
   facet normal 0.000000e+000 0.000000e+000 1.000000e+000
      outer loop
         vertex 2.730047e+000 5.449674e-001 7.000000e+000
         vertex 3.454915e+000 2.447174e-001 7.000000e+000
         vertex 1.911924e+001 2.892814e+001 7.000000e+000
      endloop
   endfacet
   facet normal 0.000000e+000 0.000000e+000 1.000000e+000
      outer loop
         vertex 2.447174e-001 3.454915e+000 7.000000e+000
         vertex 5.449674e-001 2.730047e+000 7.000000e+000
         vertex 1.876148e+001 2.910852e+001 7.000000e+000
      endloop
   endfacet
   facet normal 0.000000e+000 0.000000e+000 1.000000e+000
      outer loop
         vertex 1.843935e+001 2.934676e+001 7.000000e+000
         vertex 1.816212e+001 2.963602e+001 7.000000e+000
         vertex 0.000000e+000 5.000000e+000 7.000000e+000
      endloop
   endfacet
   facet normal 0.000000e+000 0.000000e+000 1.000000e+000
      outer loop
         vertex 0.000000e+000 5.000000e+000 7.000000e+000
         vertex 1.816212e+001 2.963602e+001 7.000000e+000
         vertex 1.793777e+001 2.996797e+001 7.000000e+000
      endloop
   endfacet
   facet normal 0.000000e+000 0.000000e+000 1.000000e+000
      outer loop
         vertex 0.000000e+000 5.000000e+000 7.000000e+000
         vertex 1.793777e+001 2.996797e+001 7.000000e+000
         vertex 0.000000e+000 3.100000e+001 7.000000e+000
      endloop
   endfacet
   facet normal 0.000000e+000 0.000000e+000 1.000000e+000
      outer loop
         vertex 0.000000e+000 3.100000e+001 7.000000e+000
         vertex 1.793777e+001 2.996797e+001 7.000000e+000
         vertex 1.777273e+001 3.033306e+001 7.000000e+000
      endloop
   endfacet
   facet normal 0.000000e+000 0.000000e+000 1.000000e+000
      outer loop
         vertex 0.000000e+000 3.100000e+001 7.000000e+000
         vertex 1.777273e+001 3.033306e+001 7.000000e+000
         vertex 1.767178e+001 3.072079e+001 7.000000e+000
      endloop
   endfacet
   facet normal 0.000000e+000 0.000000e+000 1.000000e+000
      outer loop
         vertex 2.522790e+001 4.952363e+001 7.000000e+000
         vertex 2.312733e+001 4.988053e+001 7.000000e+000
         vertex 2.030004e+001 3.346307e+001 7.000000e+000
      endloop
   endfacet
   facet normal 0.000000e+000 0.000000e+000 1.000000e+000
      outer loop
         vertex 2.030004e+001 3.346307e+001 7.000000e+000
         vertex 2.312733e+001 4.988053e+001 7.000000e+000
         vertex 2.100000e+001 5.000000e+001 7.000000e+000
      endloop
   endfacet
   facet normal 0.000000e+000 0.000000e+000 1.000000e+000
      outer loop
         vertex 2.030004e+001 3.346307e+001 7.000000e+000
         vertex 2.100000e+001 5.000000e+001 7.000000e+000
         vertex 1.989974e+001 3.348007e+001 7.000000e+000
      endloop
   endfacet
   facet normal 0.000000e+000 0.000000e+000 1.000000e+000
      outer loop
         vertex 1.989974e+001 3.348007e+001 7.000000e+000
         vertex 2.100000e+001 5.000000e+001 7.000000e+000
         vertex 1.900000e+001 5.000000e+001 7.000000e+000
      endloop
   endfacet
   facet normal 0.000000e+000 0.000000e+000 1.000000e+000
      outer loop
         vertex 1.989974e+001 3.348007e+001 7.000000e+000
         vertex 1.900000e+001 5.000000e+001 7.000000e+000
         vertex 1.950233e+001 3.342918e+001 7.000000e+000
      endloop
   endfacet
   facet normal 0.000000e+000 0.000000e+000 1.000000e+000
      outer loop
         vertex 1.950233e+001 3.342918e+001 7.000000e+000
         vertex 1.900000e+001 5.000000e+001 7.000000e+000
         vertex 1.687267e+001 4.988053e+001 7.000000e+000
      endloop
   endfacet
   facet normal 0.000000e+000 0.000000e+000 1.000000e+000
      outer loop
         vertex 1.950233e+001 3.342918e+001 7.000000e+000
         vertex 1.687267e+001 4.988053e+001 7.000000e+000
         vertex 1.477210e+001 4.952363e+001 7.000000e+000
      endloop
   endfacet
   facet normal 0.000000e+000 0.000000e+000 1.000000e+000
      outer loop
         vertex 2.170540e+001 3.275450e+001 7.000000e+000
         vertex 3.284631e+001 4.585480e+001 7.000000e+000
         vertex 2.140464e+001 3.301920e+001 7.000000e+000
      endloop
   endfacet
   facet normal 0.000000e+000 0.000000e+000 1.000000e+000
      outer loop
         vertex 2.140464e+001 3.301920e+001 7.000000e+000
         vertex 3.284631e+001 4.585480e+001 7.000000e+000
         vertex 3.110861e+001 4.708776e+001 7.000000e+000
      endloop
   endfacet
   facet normal 0.000000e+000 0.000000e+000 1.000000e+000
      outer loop
         vertex 2.140464e+001 3.301920e+001 7.000000e+000
         vertex 3.110861e+001 4.708776e+001 7.000000e+000
         vertex 2.106347e+001 3.322927e+001 7.000000e+000
      endloop
   endfacet
   facet normal 0.000000e+000 0.000000e+000 1.000000e+000
      outer loop
         vertex 2.106347e+001 3.322927e+001 7.000000e+000
         vertex 3.110861e+001 4.708776e+001 7.000000e+000
         vertex 2.924379e+001 4.811841e+001 7.000000e+000
      endloop
   endfacet
   facet normal 0.000000e+000 0.000000e+000 1.000000e+000
      outer loop
         vertex 2.106347e+001 3.322927e+001 7.000000e+000
         vertex 2.924379e+001 4.811841e+001 7.000000e+000
         vertex 2.727530e+001 4.893378e+001 7.000000e+000
      endloop
   endfacet
   facet normal 0.000000e+000 0.000000e+000 1.000000e+000
      outer loop
         vertex 2.215250e+001 3.209299e+001 7.000000e+000
         vertex 3.708776e+001 4.110861e+001 7.000000e+000
         vertex 2.195711e+001 3.244277e+001 7.000000e+000
      endloop
   endfacet
   facet normal 0.000000e+000 0.000000e+000 1.000000e+000
      outer loop
         vertex 2.195711e+001 3.244277e+001 7.000000e+000
         vertex 3.708776e+001 4.110861e+001 7.000000e+000
         vertex 3.585480e+001 4.284631e+001 7.000000e+000
      endloop
   endfacet
   facet normal 0.000000e+000 0.000000e+000 1.000000e+000
      outer loop
         vertex 2.195711e+001 3.244277e+001 7.000000e+000
         vertex 3.585480e+001 4.284631e+001 7.000000e+000
         vertex 2.170540e+001 3.275450e+001 7.000000e+000
      endloop
   endfacet
   facet normal 0.000000e+000 0.000000e+000 1.000000e+000
      outer loop
         vertex 2.170540e+001 3.275450e+001 7.000000e+000
         vertex 3.585480e+001 4.284631e+001 7.000000e+000
         vertex 3.443503e+001 4.443503e+001 7.000000e+000
      endloop
   endfacet
   facet normal 0.000000e+000 0.000000e+000 1.000000e+000
      outer loop
         vertex 2.170540e+001 3.275450e+001 7.000000e+000
         vertex 3.443503e+001 4.443503e+001 7.000000e+000
         vertex 3.284631e+001 4.585480e+001 7.000000e+000
      endloop
   endfacet
   facet normal 0.000000e+000 0.000000e+000 1.000000e+000
      outer loop
         vertex 3.988053e+001 3.312733e+001 7.000000e+000
         vertex 3.952363e+001 3.522790e+001 7.000000e+000
         vertex 2.228598e+001 3.171522e+001 7.000000e+000
      endloop
   endfacet
   facet normal 0.000000e+000 0.000000e+000 1.000000e+000
      outer loop
         vertex 2.228598e+001 3.171522e+001 7.000000e+000
         vertex 3.952363e+001 3.522790e+001 7.000000e+000
         vertex 3.893378e+001 3.727530e+001 7.000000e+000
      endloop
   endfacet
   facet normal 0.000000e+000 0.000000e+000 1.000000e+000
      outer loop
         vertex 2.228598e+001 3.171522e+001 7.000000e+000
         vertex 3.893378e+001 3.727530e+001 7.000000e+000
         vertex 2.215250e+001 3.209299e+001 7.000000e+000
      endloop
   endfacet
   facet normal 0.000000e+000 0.000000e+000 1.000000e+000
      outer loop
         vertex 2.215250e+001 3.209299e+001 7.000000e+000
         vertex 3.893378e+001 3.727530e+001 7.000000e+000
         vertex 3.811841e+001 3.924379e+001 7.000000e+000
      endloop
   endfacet
   facet normal 0.000000e+000 0.000000e+000 1.000000e+000
      outer loop
         vertex 2.215250e+001 3.209299e+001 7.000000e+000
         vertex 3.811841e+001 3.924379e+001 7.000000e+000
         vertex 3.708776e+001 4.110861e+001 7.000000e+000
      endloop
   endfacet
   facet normal 0.000000e+000 0.000000e+000 1.000000e+000
      outer loop
         vertex 3.454915e+000 2.447174e-001 7.000000e+000
         vertex 4.217828e+000 6.155830e-002 7.000000e+000
         vertex 1.911924e+001 2.892814e+001 7.000000e+000
      endloop
   endfacet
   facet normal 0.000000e+000 0.000000e+000 1.000000e+000
      outer loop
         vertex 1.911924e+001 2.892814e+001 7.000000e+000
         vertex 4.217828e+000 6.155830e-002 7.000000e+000
         vertex 5.000000e+000 0.000000e+000 7.000000e+000
      endloop
   endfacet
   facet normal 0.000000e+000 0.000000e+000 1.000000e+000
      outer loop
         vertex 1.911924e+001 2.892814e+001 7.000000e+000
         vertex 5.000000e+000 0.000000e+000 7.000000e+000
         vertex 1.950233e+001 2.881082e+001 7.000000e+000
      endloop
   endfacet
   facet normal 0.000000e+000 0.000000e+000 1.000000e+000
      outer loop
         vertex 1.843935e+001 2.934676e+001 7.000000e+000
         vertex 0.000000e+000 5.000000e+000 7.000000e+000
         vertex 1.876148e+001 2.910852e+001 7.000000e+000
      endloop
   endfacet
   facet normal 0.000000e+000 0.000000e+000 1.000000e+000
      outer loop
         vertex 1.876148e+001 2.910852e+001 7.000000e+000
         vertex 0.000000e+000 5.000000e+000 7.000000e+000
         vertex 6.155830e-002 4.217828e+000 7.000000e+000
      endloop
   endfacet
   facet normal 0.000000e+000 0.000000e+000 1.000000e+000
      outer loop
         vertex 1.876148e+001 2.910852e+001 7.000000e+000
         vertex 6.155830e-002 4.217828e+000 7.000000e+000
         vertex 2.447174e-001 3.454915e+000 7.000000e+000
      endloop
   endfacet
   facet normal 0.000000e+000 0.000000e+000 1.000000e+000
      outer loop
         vertex 5.449674e-001 2.730047e+000 7.000000e+000
         vertex 9.549150e-001 2.061074e+000 7.000000e+000
         vertex 1.876148e+001 2.910852e+001 7.000000e+000
      endloop
   endfacet
   facet normal 0.000000e+000 0.000000e+000 1.000000e+000
      outer loop
         vertex 1.876148e+001 2.910852e+001 7.000000e+000
         vertex 9.549150e-001 2.061074e+000 7.000000e+000
         vertex 1.464466e+000 1.464466e+000 7.000000e+000
      endloop
   endfacet
   facet normal 0.000000e+000 0.000000e+000 1.000000e+000
      outer loop
         vertex 1.876148e+001 2.910852e+001 7.000000e+000
         vertex 1.464466e+000 1.464466e+000 7.000000e+000
         vertex 1.911924e+001 2.892814e+001 7.000000e+000
      endloop
   endfacet
   facet normal 0.000000e+000 0.000000e+000 1.000000e+000
      outer loop
         vertex 1.911924e+001 2.892814e+001 7.000000e+000
         vertex 1.464466e+000 1.464466e+000 7.000000e+000
         vertex 2.061074e+000 9.549150e-001 7.000000e+000
      endloop
   endfacet
   facet normal 0.000000e+000 0.000000e+000 1.000000e+000
      outer loop
         vertex 1.911924e+001 2.892814e+001 7.000000e+000
         vertex 2.061074e+000 9.549150e-001 7.000000e+000
         vertex 2.730047e+000 5.449674e-001 7.000000e+000
      endloop
   endfacet
   facet normal 0.000000e+000 0.000000e+000 1.000000e+000
      outer loop
         vertex 3.500000e+001 0.000000e+000 7.000000e+000
         vertex 3.578217e+001 6.155830e-002 7.000000e+000
         vertex 2.106347e+001 2.901073e+001 7.000000e+000
      endloop
   endfacet
   facet normal 0.000000e+000 0.000000e+000 1.000000e+000
      outer loop
         vertex 2.106347e+001 2.901073e+001 7.000000e+000
         vertex 3.578217e+001 6.155830e-002 7.000000e+000
         vertex 3.654509e+001 2.447174e-001 7.000000e+000
      endloop
   endfacet
   facet normal 0.000000e+000 0.000000e+000 1.000000e+000
      outer loop
         vertex 2.215250e+001 3.014701e+001 7.000000e+000
         vertex 2.195711e+001 2.979723e+001 7.000000e+000
         vertex 4.000000e+001 5.000000e+000 7.000000e+000
      endloop
   endfacet
   facet normal 0.000000e+000 0.000000e+000 1.000000e+000
      outer loop
         vertex 4.000000e+001 5.000000e+000 7.000000e+000
         vertex 2.195711e+001 2.979723e+001 7.000000e+000
         vertex 2.170540e+001 2.948550e+001 7.000000e+000
      endloop
   endfacet
   facet normal 0.000000e+000 0.000000e+000 1.000000e+000
      outer loop
         vertex 4.000000e+001 5.000000e+000 7.000000e+000
         vertex 2.170540e+001 2.948550e+001 7.000000e+000
         vertex 3.993844e+001 4.217828e+000 7.000000e+000
      endloop
   endfacet
   facet normal 0.000000e+000 0.000000e+000 1.000000e+000
      outer loop
         vertex 3.993844e+001 4.217828e+000 7.000000e+000
         vertex 2.170540e+001 2.948550e+001 7.000000e+000
         vertex 2.140464e+001 2.922080e+001 7.000000e+000
      endloop
   endfacet
   facet normal 0.000000e+000 0.000000e+000 1.000000e+000
      outer loop
         vertex 3.993844e+001 4.217828e+000 7.000000e+000
         vertex 2.140464e+001 2.922080e+001 7.000000e+000
         vertex 3.975528e+001 3.454915e+000 7.000000e+000
      endloop
   endfacet
   facet normal 0.000000e+000 0.000000e+000 1.000000e+000
      outer loop
         vertex 3.975528e+001 3.454915e+000 7.000000e+000
         vertex 2.140464e+001 2.922080e+001 7.000000e+000
         vertex 2.106347e+001 2.901073e+001 7.000000e+000
      endloop
   endfacet
   facet normal 0.000000e+000 0.000000e+000 1.000000e+000
      outer loop
         vertex 3.654509e+001 2.447174e-001 7.000000e+000
         vertex 3.726995e+001 5.449674e-001 7.000000e+000
         vertex 2.106347e+001 2.901073e+001 7.000000e+000
      endloop
   endfacet
   facet normal 0.000000e+000 0.000000e+000 1.000000e+000
      outer loop
         vertex 2.106347e+001 2.901073e+001 7.000000e+000
         vertex 3.726995e+001 5.449674e-001 7.000000e+000
         vertex 3.793893e+001 9.549150e-001 7.000000e+000
      endloop
   endfacet
   facet normal 0.000000e+000 0.000000e+000 1.000000e+000
      outer loop
         vertex 2.106347e+001 2.901073e+001 7.000000e+000
         vertex 3.793893e+001 9.549150e-001 7.000000e+000
         vertex 3.853553e+001 1.464466e+000 7.000000e+000
      endloop
   endfacet
   facet normal 0.000000e+000 0.000000e+000 1.000000e+000
      outer loop
         vertex 3.853553e+001 1.464466e+000 7.000000e+000
         vertex 3.904509e+001 2.061074e+000 7.000000e+000
         vertex 2.106347e+001 2.901073e+001 7.000000e+000
      endloop
   endfacet
   facet normal 0.000000e+000 0.000000e+000 1.000000e+000
      outer loop
         vertex 2.106347e+001 2.901073e+001 7.000000e+000
         vertex 3.904509e+001 2.061074e+000 7.000000e+000
         vertex 3.945503e+001 2.730047e+000 7.000000e+000
      endloop
   endfacet
   facet normal 0.000000e+000 0.000000e+000 1.000000e+000
      outer loop
         vertex 2.106347e+001 2.901073e+001 7.000000e+000
         vertex 3.945503e+001 2.730047e+000 7.000000e+000
         vertex 3.975528e+001 3.454915e+000 7.000000e+000
      endloop
   endfacet
   facet normal 0.000000e+000 0.000000e+000 1.000000e+000
      outer loop
         vertex 2.106347e+001 2.901073e+001 7.000000e+000
         vertex 2.069171e+001 2.886134e+001 7.000000e+000
         vertex 3.500000e+001 0.000000e+000 7.000000e+000
      endloop
   endfacet
   facet normal 0.000000e+000 0.000000e+000 1.000000e+000
      outer loop
         vertex 3.500000e+001 0.000000e+000 7.000000e+000
         vertex 2.069171e+001 2.886134e+001 7.000000e+000
         vertex 2.030004e+001 2.877693e+001 7.000000e+000
      endloop
   endfacet
   facet normal 0.000000e+000 0.000000e+000 1.000000e+000
      outer loop
         vertex 3.500000e+001 0.000000e+000 7.000000e+000
         vertex 2.030004e+001 2.877693e+001 7.000000e+000
         vertex 5.000000e+000 0.000000e+000 7.000000e+000
      endloop
   endfacet
   facet normal 0.000000e+000 0.000000e+000 1.000000e+000
      outer loop
         vertex 5.000000e+000 0.000000e+000 7.000000e+000
         vertex 2.030004e+001 2.877693e+001 7.000000e+000
         vertex 1.989974e+001 2.875993e+001 7.000000e+000
      endloop
   endfacet
   facet normal 0.000000e+000 0.000000e+000 1.000000e+000
      outer loop
         vertex 5.000000e+000 0.000000e+000 7.000000e+000
         vertex 1.989974e+001 2.875993e+001 7.000000e+000
         vertex 1.950233e+001 2.881082e+001 7.000000e+000
      endloop
   endfacet
   facet normal 0.000000e+000 0.000000e+000 -1.000000e+000
      outer loop
         vertex 1.777273e+001 3.190694e+001 0.000000e+000
         vertex 1.767178e+001 3.151921e+001 0.000000e+000
         vertex 4.763696e-001 3.522790e+001 0.000000e+000
      endloop
   endfacet
   facet normal 0.000000e+000 0.000000e+000 -1.000000e+000
      outer loop
         vertex 4.763696e-001 3.522790e+001 0.000000e+000
         vertex 1.767178e+001 3.151921e+001 0.000000e+000
         vertex 1.194680e-001 3.312733e+001 0.000000e+000
      endloop
   endfacet
   facet normal 0.000000e+000 0.000000e+000 -1.000000e+000
      outer loop
         vertex 1.194680e-001 3.312733e+001 0.000000e+000
         vertex 1.767178e+001 3.151921e+001 0.000000e+000
         vertex 1.763780e+001 3.112000e+001 0.000000e+000
      endloop
   endfacet
   facet normal 0.000000e+000 0.000000e+000 -1.000000e+000
      outer loop
         vertex 1.194680e-001 3.312733e+001 0.000000e+000
         vertex 1.763780e+001 3.112000e+001 0.000000e+000
         vertex 0.000000e+000 3.100000e+001 0.000000e+000
      endloop
   endfacet
   facet normal 0.000000e+000 0.000000e+000 -1.000000e+000
      outer loop
         vertex 1.763780e+001 3.112000e+001 0.000000e+000
         vertex 1.767178e+001 3.072079e+001 0.000000e+000
         vertex 0.000000e+000 3.100000e+001 0.000000e+000
      endloop
   endfacet
   facet normal 0.000000e+000 0.000000e+000 -1.000000e+000
      outer loop
         vertex 0.000000e+000 3.100000e+001 0.000000e+000
         vertex 1.767178e+001 3.072079e+001 0.000000e+000
         vertex 1.777273e+001 3.033306e+001 0.000000e+000
      endloop
   endfacet
   facet normal 0.000000e+000 0.000000e+000 -1.000000e+000
      outer loop
         vertex 0.000000e+000 3.100000e+001 0.000000e+000
         vertex 1.777273e+001 3.033306e+001 0.000000e+000
         vertex 0.000000e+000 5.000000e+000 0.000000e+000
      endloop
   endfacet
   facet normal 0.000000e+000 0.000000e+000 -1.000000e+000
      outer loop
         vertex 0.000000e+000 5.000000e+000 0.000000e+000
         vertex 1.777273e+001 3.033306e+001 0.000000e+000
         vertex 1.793777e+001 2.996797e+001 0.000000e+000
      endloop
   endfacet
   facet normal 0.000000e+000 0.000000e+000 -1.000000e+000
      outer loop
         vertex 9.549150e-001 2.061074e+000 0.000000e+000
         vertex 5.449674e-001 2.730047e+000 0.000000e+000
         vertex 1.876148e+001 2.910852e+001 0.000000e+000
      endloop
   endfacet
   facet normal 0.000000e+000 0.000000e+000 -1.000000e+000
      outer loop
         vertex 2.069171e+001 3.337866e+001 0.000000e+000
         vertex 2.727530e+001 4.893378e+001 0.000000e+000
         vertex 2.106347e+001 3.322927e+001 0.000000e+000
      endloop
   endfacet
   facet normal 0.000000e+000 0.000000e+000 -1.000000e+000
      outer loop
         vertex 2.106347e+001 3.322927e+001 0.000000e+000
         vertex 2.727530e+001 4.893378e+001 0.000000e+000
         vertex 2.924379e+001 4.811841e+001 0.000000e+000
      endloop
   endfacet
   facet normal 0.000000e+000 0.000000e+000 -1.000000e+000
      outer loop
         vertex 2.106347e+001 3.322927e+001 0.000000e+000
         vertex 2.924379e+001 4.811841e+001 0.000000e+000
         vertex 2.140464e+001 3.301920e+001 0.000000e+000
      endloop
   endfacet
   facet normal 0.000000e+000 0.000000e+000 -1.000000e+000
      outer loop
         vertex 1.911924e+001 3.331186e+001 0.000000e+000
         vertex 1.477210e+001 4.952363e+001 0.000000e+000
         vertex 1.950233e+001 3.342918e+001 0.000000e+000
      endloop
   endfacet
   facet normal 0.000000e+000 0.000000e+000 -1.000000e+000
      outer loop
         vertex 1.950233e+001 3.342918e+001 0.000000e+000
         vertex 1.477210e+001 4.952363e+001 0.000000e+000
         vertex 1.687267e+001 4.988053e+001 0.000000e+000
      endloop
   endfacet
   facet normal 0.000000e+000 0.000000e+000 -1.000000e+000
      outer loop
         vertex 1.950233e+001 3.342918e+001 0.000000e+000
         vertex 1.687267e+001 4.988053e+001 0.000000e+000
         vertex 1.989974e+001 3.348007e+001 0.000000e+000
      endloop
   endfacet
   facet normal 0.000000e+000 0.000000e+000 -1.000000e+000
      outer loop
         vertex 1.793777e+001 2.996797e+001 0.000000e+000
         vertex 1.816212e+001 2.963602e+001 0.000000e+000
         vertex 0.000000e+000 5.000000e+000 0.000000e+000
      endloop
   endfacet
   facet normal 0.000000e+000 0.000000e+000 -1.000000e+000
      outer loop
         vertex 0.000000e+000 5.000000e+000 0.000000e+000
         vertex 1.816212e+001 2.963602e+001 0.000000e+000
         vertex 1.843935e+001 2.934676e+001 0.000000e+000
      endloop
   endfacet
   facet normal 0.000000e+000 0.000000e+000 -1.000000e+000
      outer loop
         vertex 0.000000e+000 5.000000e+000 0.000000e+000
         vertex 1.843935e+001 2.934676e+001 0.000000e+000
         vertex 6.155830e-002 4.217828e+000 0.000000e+000
      endloop
   endfacet
   facet normal 0.000000e+000 0.000000e+000 -1.000000e+000
      outer loop
         vertex 6.155830e-002 4.217828e+000 0.000000e+000
         vertex 1.843935e+001 2.934676e+001 0.000000e+000
         vertex 1.876148e+001 2.910852e+001 0.000000e+000
      endloop
   endfacet
   facet normal 0.000000e+000 0.000000e+000 -1.000000e+000
      outer loop
         vertex 6.155830e-002 4.217828e+000 0.000000e+000
         vertex 1.876148e+001 2.910852e+001 0.000000e+000
         vertex 2.447174e-001 3.454915e+000 0.000000e+000
      endloop
   endfacet
   facet normal 0.000000e+000 0.000000e+000 -1.000000e+000
      outer loop
         vertex 2.447174e-001 3.454915e+000 0.000000e+000
         vertex 1.876148e+001 2.910852e+001 0.000000e+000
         vertex 5.449674e-001 2.730047e+000 0.000000e+000
      endloop
   endfacet
   facet normal 0.000000e+000 0.000000e+000 -1.000000e+000
      outer loop
         vertex 3.454915e+000 2.447174e-001 0.000000e+000
         vertex 1.911924e+001 2.892814e+001 0.000000e+000
         vertex 4.217828e+000 6.155830e-002 0.000000e+000
      endloop
   endfacet
   facet normal 0.000000e+000 0.000000e+000 -1.000000e+000
      outer loop
         vertex 4.217828e+000 6.155830e-002 0.000000e+000
         vertex 1.911924e+001 2.892814e+001 0.000000e+000
         vertex 5.000000e+000 0.000000e+000 0.000000e+000
      endloop
   endfacet
   facet normal 0.000000e+000 0.000000e+000 -1.000000e+000
      outer loop
         vertex 3.454915e+000 2.447174e-001 0.000000e+000
         vertex 2.730047e+000 5.449674e-001 0.000000e+000
         vertex 1.911924e+001 2.892814e+001 0.000000e+000
      endloop
   endfacet
   facet normal 0.000000e+000 0.000000e+000 -1.000000e+000
      outer loop
         vertex 1.911924e+001 2.892814e+001 0.000000e+000
         vertex 2.730047e+000 5.449674e-001 0.000000e+000
         vertex 2.061074e+000 9.549150e-001 0.000000e+000
      endloop
   endfacet
   facet normal 0.000000e+000 0.000000e+000 -1.000000e+000
      outer loop
         vertex 1.911924e+001 2.892814e+001 0.000000e+000
         vertex 2.061074e+000 9.549150e-001 0.000000e+000
         vertex 1.876148e+001 2.910852e+001 0.000000e+000
      endloop
   endfacet
   facet normal 0.000000e+000 0.000000e+000 -1.000000e+000
      outer loop
         vertex 1.876148e+001 2.910852e+001 0.000000e+000
         vertex 2.061074e+000 9.549150e-001 0.000000e+000
         vertex 1.464466e+000 1.464466e+000 0.000000e+000
      endloop
   endfacet
   facet normal 0.000000e+000 0.000000e+000 -1.000000e+000
      outer loop
         vertex 1.876148e+001 2.910852e+001 0.000000e+000
         vertex 1.464466e+000 1.464466e+000 0.000000e+000
         vertex 9.549150e-001 2.061074e+000 0.000000e+000
      endloop
   endfacet
   facet normal 0.000000e+000 0.000000e+000 -1.000000e+000
      outer loop
         vertex 1.911924e+001 2.892814e+001 0.000000e+000
         vertex 1.950233e+001 2.881082e+001 0.000000e+000
         vertex 5.000000e+000 0.000000e+000 0.000000e+000
      endloop
   endfacet
   facet normal 0.000000e+000 0.000000e+000 -1.000000e+000
      outer loop
         vertex 5.000000e+000 0.000000e+000 0.000000e+000
         vertex 1.950233e+001 2.881082e+001 0.000000e+000
         vertex 1.989974e+001 2.875993e+001 0.000000e+000
      endloop
   endfacet
   facet normal 0.000000e+000 0.000000e+000 -1.000000e+000
      outer loop
         vertex 5.000000e+000 0.000000e+000 0.000000e+000
         vertex 1.989974e+001 2.875993e+001 0.000000e+000
         vertex 3.500000e+001 0.000000e+000 0.000000e+000
      endloop
   endfacet
   facet normal 0.000000e+000 0.000000e+000 -1.000000e+000
      outer loop
         vertex 2.215250e+001 3.209299e+001 0.000000e+000
         vertex 3.893378e+001 3.727530e+001 0.000000e+000
         vertex 2.228598e+001 3.171522e+001 0.000000e+000
      endloop
   endfacet
   facet normal 0.000000e+000 0.000000e+000 -1.000000e+000
      outer loop
         vertex 2.228598e+001 3.171522e+001 0.000000e+000
         vertex 3.893378e+001 3.727530e+001 0.000000e+000
         vertex 3.952363e+001 3.522790e+001 0.000000e+000
      endloop
   endfacet
   facet normal 0.000000e+000 0.000000e+000 -1.000000e+000
      outer loop
         vertex 2.228598e+001 3.171522e+001 0.000000e+000
         vertex 3.952363e+001 3.522790e+001 0.000000e+000
         vertex 2.235369e+001 3.132033e+001 0.000000e+000
      endloop
   endfacet
   facet normal 0.000000e+000 0.000000e+000 -1.000000e+000
      outer loop
         vertex 2.235369e+001 3.132033e+001 0.000000e+000
         vertex 3.952363e+001 3.522790e+001 0.000000e+000
         vertex 3.988053e+001 3.312733e+001 0.000000e+000
      endloop
   endfacet
   facet normal 0.000000e+000 0.000000e+000 -1.000000e+000
      outer loop
         vertex 2.235369e+001 3.132033e+001 0.000000e+000
         vertex 3.988053e+001 3.312733e+001 0.000000e+000
         vertex 2.235369e+001 3.091967e+001 0.000000e+000
      endloop
   endfacet
   facet normal 0.000000e+000 0.000000e+000 -1.000000e+000
      outer loop
         vertex 2.235369e+001 3.091967e+001 0.000000e+000
         vertex 3.988053e+001 3.312733e+001 0.000000e+000
         vertex 4.000000e+001 3.100000e+001 0.000000e+000
      endloop
   endfacet
   facet normal 0.000000e+000 0.000000e+000 -1.000000e+000
      outer loop
         vertex 2.235369e+001 3.091967e+001 0.000000e+000
         vertex 4.000000e+001 3.100000e+001 0.000000e+000
         vertex 2.228598e+001 3.052478e+001 0.000000e+000
      endloop
   endfacet
   facet normal 0.000000e+000 0.000000e+000 -1.000000e+000
      outer loop
         vertex 2.195711e+001 3.244277e+001 0.000000e+000
         vertex 3.708776e+001 4.110861e+001 0.000000e+000
         vertex 2.215250e+001 3.209299e+001 0.000000e+000
      endloop
   endfacet
   facet normal 0.000000e+000 0.000000e+000 -1.000000e+000
      outer loop
         vertex 2.215250e+001 3.209299e+001 0.000000e+000
         vertex 3.708776e+001 4.110861e+001 0.000000e+000
         vertex 3.811841e+001 3.924379e+001 0.000000e+000
      endloop
   endfacet
   facet normal 0.000000e+000 0.000000e+000 -1.000000e+000
      outer loop
         vertex 2.215250e+001 3.209299e+001 0.000000e+000
         vertex 3.811841e+001 3.924379e+001 0.000000e+000
         vertex 3.893378e+001 3.727530e+001 0.000000e+000
      endloop
   endfacet
   facet normal 0.000000e+000 0.000000e+000 -1.000000e+000
      outer loop
         vertex 2.924379e+001 4.811841e+001 0.000000e+000
         vertex 3.110861e+001 4.708776e+001 0.000000e+000
         vertex 2.140464e+001 3.301920e+001 0.000000e+000
      endloop
   endfacet
   facet normal 0.000000e+000 0.000000e+000 -1.000000e+000
      outer loop
         vertex 2.140464e+001 3.301920e+001 0.000000e+000
         vertex 3.110861e+001 4.708776e+001 0.000000e+000
         vertex 3.284631e+001 4.585480e+001 0.000000e+000
      endloop
   endfacet
   facet normal 0.000000e+000 0.000000e+000 -1.000000e+000
      outer loop
         vertex 2.140464e+001 3.301920e+001 0.000000e+000
         vertex 3.284631e+001 4.585480e+001 0.000000e+000
         vertex 2.170540e+001 3.275450e+001 0.000000e+000
      endloop
   endfacet
   facet normal 0.000000e+000 0.000000e+000 -1.000000e+000
      outer loop
         vertex 2.170540e+001 3.275450e+001 0.000000e+000
         vertex 3.284631e+001 4.585480e+001 0.000000e+000
         vertex 3.443503e+001 4.443503e+001 0.000000e+000
      endloop
   endfacet
   facet normal 0.000000e+000 0.000000e+000 -1.000000e+000
      outer loop
         vertex 2.170540e+001 3.275450e+001 0.000000e+000
         vertex 3.443503e+001 4.443503e+001 0.000000e+000
         vertex 2.195711e+001 3.244277e+001 0.000000e+000
      endloop
   endfacet
   facet normal 0.000000e+000 0.000000e+000 -1.000000e+000
      outer loop
         vertex 2.195711e+001 3.244277e+001 0.000000e+000
         vertex 3.443503e+001 4.443503e+001 0.000000e+000
         vertex 3.585480e+001 4.284631e+001 0.000000e+000
      endloop
   endfacet
   facet normal 0.000000e+000 0.000000e+000 -1.000000e+000
      outer loop
         vertex 2.195711e+001 3.244277e+001 0.000000e+000
         vertex 3.585480e+001 4.284631e+001 0.000000e+000
         vertex 3.708776e+001 4.110861e+001 0.000000e+000
      endloop
   endfacet
   facet normal 0.000000e+000 0.000000e+000 -1.000000e+000
      outer loop
         vertex 1.687267e+001 4.988053e+001 0.000000e+000
         vertex 1.900000e+001 5.000000e+001 0.000000e+000
         vertex 1.989974e+001 3.348007e+001 0.000000e+000
      endloop
   endfacet
   facet normal 0.000000e+000 0.000000e+000 -1.000000e+000
      outer loop
         vertex 1.989974e+001 3.348007e+001 0.000000e+000
         vertex 1.900000e+001 5.000000e+001 0.000000e+000
         vertex 2.100000e+001 5.000000e+001 0.000000e+000
      endloop
   endfacet
   facet normal 0.000000e+000 0.000000e+000 -1.000000e+000
      outer loop
         vertex 1.989974e+001 3.348007e+001 0.000000e+000
         vertex 2.100000e+001 5.000000e+001 0.000000e+000
         vertex 2.030004e+001 3.346307e+001 0.000000e+000
      endloop
   endfacet
   facet normal 0.000000e+000 0.000000e+000 -1.000000e+000
      outer loop
         vertex 2.030004e+001 3.346307e+001 0.000000e+000
         vertex 2.100000e+001 5.000000e+001 0.000000e+000
         vertex 2.312733e+001 4.988053e+001 0.000000e+000
      endloop
   endfacet
   facet normal 0.000000e+000 0.000000e+000 -1.000000e+000
      outer loop
         vertex 2.030004e+001 3.346307e+001 0.000000e+000
         vertex 2.312733e+001 4.988053e+001 0.000000e+000
         vertex 2.069171e+001 3.337866e+001 0.000000e+000
      endloop
   endfacet
   facet normal 0.000000e+000 0.000000e+000 -1.000000e+000
      outer loop
         vertex 2.069171e+001 3.337866e+001 0.000000e+000
         vertex 2.312733e+001 4.988053e+001 0.000000e+000
         vertex 2.522790e+001 4.952363e+001 0.000000e+000
      endloop
   endfacet
   facet normal 0.000000e+000 0.000000e+000 -1.000000e+000
      outer loop
         vertex 2.069171e+001 3.337866e+001 0.000000e+000
         vertex 2.522790e+001 4.952363e+001 0.000000e+000
         vertex 2.727530e+001 4.893378e+001 0.000000e+000
      endloop
   endfacet
   facet normal 0.000000e+000 0.000000e+000 -1.000000e+000
      outer loop
         vertex 1.843935e+001 3.289324e+001 0.000000e+000
         vertex 1.816212e+001 3.260398e+001 0.000000e+000
         vertex 5.564971e+000 4.443503e+001 0.000000e+000
      endloop
   endfacet
   facet normal 0.000000e+000 0.000000e+000 -1.000000e+000
      outer loop
         vertex 4.763696e-001 3.522790e+001 0.000000e+000
         vertex 1.066217e+000 3.727530e+001 0.000000e+000
         vertex 1.777273e+001 3.190694e+001 0.000000e+000
      endloop
   endfacet
   facet normal 0.000000e+000 0.000000e+000 -1.000000e+000
      outer loop
         vertex 1.777273e+001 3.190694e+001 0.000000e+000
         vertex 1.066217e+000 3.727530e+001 0.000000e+000
         vertex 1.881592e+000 3.924379e+001 0.000000e+000
      endloop
   endfacet
   facet normal 0.000000e+000 0.000000e+000 -1.000000e+000
      outer loop
         vertex 1.777273e+001 3.190694e+001 0.000000e+000
         vertex 1.881592e+000 3.924379e+001 0.000000e+000
         vertex 1.793777e+001 3.227203e+001 0.000000e+000
      endloop
   endfacet
   facet normal 0.000000e+000 0.000000e+000 -1.000000e+000
      outer loop
         vertex 1.793777e+001 3.227203e+001 0.000000e+000
         vertex 1.881592e+000 3.924379e+001 0.000000e+000
         vertex 2.912240e+000 4.110861e+001 0.000000e+000
      endloop
   endfacet
   facet normal 0.000000e+000 0.000000e+000 -1.000000e+000
      outer loop
         vertex 1.793777e+001 3.227203e+001 0.000000e+000
         vertex 2.912240e+000 4.110861e+001 0.000000e+000
         vertex 1.816212e+001 3.260398e+001 0.000000e+000
      endloop
   endfacet
   facet normal 0.000000e+000 0.000000e+000 -1.000000e+000
      outer loop
         vertex 1.816212e+001 3.260398e+001 0.000000e+000
         vertex 2.912240e+000 4.110861e+001 0.000000e+000
         vertex 4.145202e+000 4.284631e+001 0.000000e+000
      endloop
   endfacet
   facet normal 0.000000e+000 0.000000e+000 -1.000000e+000
      outer loop
         vertex 1.816212e+001 3.260398e+001 0.000000e+000
         vertex 4.145202e+000 4.284631e+001 0.000000e+000
         vertex 5.564971e+000 4.443503e+001 0.000000e+000
      endloop
   endfacet
   facet normal 0.000000e+000 0.000000e+000 -1.000000e+000
      outer loop
         vertex 1.989974e+001 2.875993e+001 0.000000e+000
         vertex 2.030004e+001 2.877693e+001 0.000000e+000
         vertex 3.500000e+001 0.000000e+000 0.000000e+000
      endloop
   endfacet
   facet normal 0.000000e+000 0.000000e+000 -1.000000e+000
      outer loop
         vertex 3.500000e+001 0.000000e+000 0.000000e+000
         vertex 2.030004e+001 2.877693e+001 0.000000e+000
         vertex 2.069171e+001 2.886134e+001 0.000000e+000
      endloop
   endfacet
   facet normal 0.000000e+000 0.000000e+000 -1.000000e+000
      outer loop
         vertex 3.500000e+001 0.000000e+000 0.000000e+000
         vertex 2.069171e+001 2.886134e+001 0.000000e+000
         vertex 3.578217e+001 6.155830e-002 0.000000e+000
      endloop
   endfacet
   facet normal 0.000000e+000 0.000000e+000 -1.000000e+000
      outer loop
         vertex 3.578217e+001 6.155830e-002 0.000000e+000
         vertex 2.069171e+001 2.886134e+001 0.000000e+000
         vertex 2.106347e+001 2.901073e+001 0.000000e+000
      endloop
   endfacet
   facet normal 0.000000e+000 0.000000e+000 -1.000000e+000
      outer loop
         vertex 3.578217e+001 6.155830e-002 0.000000e+000
         vertex 2.106347e+001 2.901073e+001 0.000000e+000
         vertex 3.654509e+001 2.447174e-001 0.000000e+000
      endloop
   endfacet
   facet normal 0.000000e+000 0.000000e+000 -1.000000e+000
      outer loop
         vertex 5.564971e+000 4.443503e+001 0.000000e+000
         vertex 7.153694e+000 4.585480e+001 0.000000e+000
         vertex 1.843935e+001 3.289324e+001 0.000000e+000
      endloop
   endfacet
   facet normal 0.000000e+000 0.000000e+000 -1.000000e+000
      outer loop
         vertex 1.843935e+001 3.289324e+001 0.000000e+000
         vertex 7.153694e+000 4.585480e+001 0.000000e+000
         vertex 8.891391e+000 4.708776e+001 0.000000e+000
      endloop
   endfacet
   facet normal 0.000000e+000 0.000000e+000 -1.000000e+000
      outer loop
         vertex 1.843935e+001 3.289324e+001 0.000000e+000
         vertex 8.891391e+000 4.708776e+001 0.000000e+000
         vertex 1.876148e+001 3.313148e+001 0.000000e+000
      endloop
   endfacet
   facet normal 0.000000e+000 0.000000e+000 -1.000000e+000
      outer loop
         vertex 1.876148e+001 3.313148e+001 0.000000e+000
         vertex 8.891391e+000 4.708776e+001 0.000000e+000
         vertex 1.075621e+001 4.811841e+001 0.000000e+000
      endloop
   endfacet
   facet normal 0.000000e+000 0.000000e+000 -1.000000e+000
      outer loop
         vertex 1.876148e+001 3.313148e+001 0.000000e+000
         vertex 1.075621e+001 4.811841e+001 0.000000e+000
         vertex 1.911924e+001 3.331186e+001 0.000000e+000
      endloop
   endfacet
   facet normal 0.000000e+000 0.000000e+000 -1.000000e+000
      outer loop
         vertex 1.911924e+001 3.331186e+001 0.000000e+000
         vertex 1.075621e+001 4.811841e+001 0.000000e+000
         vertex 1.272470e+001 4.893378e+001 0.000000e+000
      endloop
   endfacet
   facet normal 0.000000e+000 0.000000e+000 -1.000000e+000
      outer loop
         vertex 1.911924e+001 3.331186e+001 0.000000e+000
         vertex 1.272470e+001 4.893378e+001 0.000000e+000
         vertex 1.477210e+001 4.952363e+001 0.000000e+000
      endloop
   endfacet
   facet normal 0.000000e+000 0.000000e+000 -1.000000e+000
      outer loop
         vertex 4.000000e+001 5.000000e+000 0.000000e+000
         vertex 2.195711e+001 2.979723e+001 0.000000e+000
         vertex 4.000000e+001 3.100000e+001 0.000000e+000
      endloop
   endfacet
   facet normal 0.000000e+000 0.000000e+000 -1.000000e+000
      outer loop
         vertex 4.000000e+001 3.100000e+001 0.000000e+000
         vertex 2.195711e+001 2.979723e+001 0.000000e+000
         vertex 2.215250e+001 3.014701e+001 0.000000e+000
      endloop
   endfacet
   facet normal 0.000000e+000 0.000000e+000 -1.000000e+000
      outer loop
         vertex 4.000000e+001 3.100000e+001 0.000000e+000
         vertex 2.215250e+001 3.014701e+001 0.000000e+000
         vertex 2.228598e+001 3.052478e+001 0.000000e+000
      endloop
   endfacet
   facet normal 0.000000e+000 0.000000e+000 -1.000000e+000
      outer loop
         vertex 3.975528e+001 3.454915e+000 0.000000e+000
         vertex 2.106347e+001 2.901073e+001 0.000000e+000
         vertex 3.993844e+001 4.217828e+000 0.000000e+000
      endloop
   endfacet
   facet normal 0.000000e+000 0.000000e+000 -1.000000e+000
      outer loop
         vertex 3.993844e+001 4.217828e+000 0.000000e+000
         vertex 2.106347e+001 2.901073e+001 0.000000e+000
         vertex 2.140464e+001 2.922080e+001 0.000000e+000
      endloop
   endfacet
   facet normal 0.000000e+000 0.000000e+000 -1.000000e+000
      outer loop
         vertex 3.993844e+001 4.217828e+000 0.000000e+000
         vertex 2.140464e+001 2.922080e+001 0.000000e+000
         vertex 4.000000e+001 5.000000e+000 0.000000e+000
      endloop
   endfacet
   facet normal 0.000000e+000 0.000000e+000 -1.000000e+000
      outer loop
         vertex 4.000000e+001 5.000000e+000 0.000000e+000
         vertex 2.140464e+001 2.922080e+001 0.000000e+000
         vertex 2.170540e+001 2.948550e+001 0.000000e+000
      endloop
   endfacet
   facet normal 0.000000e+000 0.000000e+000 -1.000000e+000
      outer loop
         vertex 4.000000e+001 5.000000e+000 0.000000e+000
         vertex 2.170540e+001 2.948550e+001 0.000000e+000
         vertex 2.195711e+001 2.979723e+001 0.000000e+000
      endloop
   endfacet
   facet normal 0.000000e+000 0.000000e+000 -1.000000e+000
      outer loop
         vertex 3.975528e+001 3.454915e+000 0.000000e+000
         vertex 3.945503e+001 2.730047e+000 0.000000e+000
         vertex 2.106347e+001 2.901073e+001 0.000000e+000
      endloop
   endfacet
   facet normal 0.000000e+000 0.000000e+000 -1.000000e+000
      outer loop
         vertex 2.106347e+001 2.901073e+001 0.000000e+000
         vertex 3.945503e+001 2.730047e+000 0.000000e+000
         vertex 3.904509e+001 2.061074e+000 0.000000e+000
      endloop
   endfacet
   facet normal 0.000000e+000 0.000000e+000 -1.000000e+000
      outer loop
         vertex 2.106347e+001 2.901073e+001 0.000000e+000
         vertex 3.904509e+001 2.061074e+000 0.000000e+000
         vertex 3.853553e+001 1.464466e+000 0.000000e+000
      endloop
   endfacet
   facet normal 0.000000e+000 0.000000e+000 -1.000000e+000
      outer loop
         vertex 3.853553e+001 1.464466e+000 0.000000e+000
         vertex 3.793893e+001 9.549150e-001 0.000000e+000
         vertex 2.106347e+001 2.901073e+001 0.000000e+000
      endloop
   endfacet
   facet normal 0.000000e+000 0.000000e+000 -1.000000e+000
      outer loop
         vertex 2.106347e+001 2.901073e+001 0.000000e+000
         vertex 3.793893e+001 9.549150e-001 0.000000e+000
         vertex 3.726995e+001 5.449674e-001 0.000000e+000
      endloop
   endfacet
   facet normal 0.000000e+000 0.000000e+000 -1.000000e+000
      outer loop
         vertex 2.106347e+001 2.901073e+001 0.000000e+000
         vertex 3.726995e+001 5.449674e-001 0.000000e+000
         vertex 3.654509e+001 2.447174e-001 0.000000e+000
      endloop
   endfacet
   facet normal -9.986320e-001 -5.228807e-002 0.000000e+000
      outer loop
         vertex 0.000000e+000 5.000000e+000 7.000000e+000
         vertex 0.000000e+000 5.000000e+000 0.000000e+000
         vertex 6.155830e-002 4.217828e+000 0.000000e+000
      endloop
   endfacet
   facet normal -9.945168e-001 -1.045761e-001 0.000000e+000
      outer loop
         vertex 0.000000e+000 5.000000e+000 7.000000e+000
         vertex 6.155830e-002 4.217828e+000 0.000000e+000
         vertex 6.155830e-002 4.217828e+000 7.000000e+000
      endloop
   endfacet
   facet normal -9.781576e-001 -2.078648e-001 0.000000e+000
      outer loop
         vertex 6.155830e-002 4.217828e+000 7.000000e+000
         vertex 6.155830e-002 4.217828e+000 0.000000e+000
         vertex 2.447174e-001 3.454915e+000 0.000000e+000
      endloop
   endfacet
   facet normal -9.659134e-001 -2.588653e-001 0.000000e+000
      outer loop
         vertex 6.155830e-002 4.217828e+000 7.000000e+000
         vertex 2.447174e-001 3.454915e+000 0.000000e+000
         vertex 2.447174e-001 3.454915e+000 7.000000e+000
      endloop
   endfacet
   facet normal -9.335976e-001 -3.583232e-001 0.000000e+000
      outer loop
         vertex 2.447174e-001 3.454915e+000 7.000000e+000
         vertex 2.447174e-001 3.454915e+000 0.000000e+000
         vertex 5.449674e-001 2.730047e+000 0.000000e+000
      endloop
   endfacet
   facet normal -9.135259e-001 -4.067805e-001 0.000000e+000
      outer loop
         vertex 2.447174e-001 3.454915e+000 7.000000e+000
         vertex 5.449674e-001 2.730047e+000 0.000000e+000
         vertex 5.449674e-001 2.730047e+000 7.000000e+000
      endloop
   endfacet
   facet normal -8.660494e-001 -4.999584e-001 0.000000e+000
      outer loop
         vertex 5.449674e-001 2.730047e+000 7.000000e+000
         vertex 5.449674e-001 2.730047e+000 0.000000e+000
         vertex 9.549150e-001 2.061074e+000 0.000000e+000
      endloop
   endfacet
   facet normal -8.386444e-001 -5.446792e-001 0.000000e+000
      outer loop
         vertex 5.449674e-001 2.730047e+000 7.000000e+000
         vertex 9.549150e-001 2.061074e+000 0.000000e+000
         vertex 9.549150e-001 2.061074e+000 7.000000e+000
      endloop
   endfacet
   facet normal -7.771761e-001 -6.292831e-001 0.000000e+000
      outer loop
         vertex 9.549150e-001 2.061074e+000 7.000000e+000
         vertex 9.549150e-001 2.061074e+000 0.000000e+000
         vertex 1.464466e+000 1.464466e+000 0.000000e+000
      endloop
   endfacet
   facet normal -7.431127e-001 -6.691663e-001 0.000000e+000
      outer loop
         vertex 9.549150e-001 2.061074e+000 7.000000e+000
         vertex 1.464466e+000 1.464466e+000 0.000000e+000
         vertex 1.464466e+000 1.464466e+000 7.000000e+000
      endloop
   endfacet
   facet normal -6.691663e-001 -7.431127e-001 0.000000e+000
      outer loop
         vertex 1.464466e+000 1.464466e+000 7.000000e+000
         vertex 1.464466e+000 1.464466e+000 0.000000e+000
         vertex 2.061074e+000 9.549150e-001 0.000000e+000
      endloop
   endfacet
   facet normal -6.292831e-001 -7.771761e-001 0.000000e+000
      outer loop
         vertex 1.464466e+000 1.464466e+000 7.000000e+000
         vertex 2.061074e+000 9.549150e-001 0.000000e+000
         vertex 2.061074e+000 9.549150e-001 7.000000e+000
      endloop
   endfacet
   facet normal -5.446792e-001 -8.386444e-001 0.000000e+000
      outer loop
         vertex 2.061074e+000 9.549150e-001 7.000000e+000
         vertex 2.061074e+000 9.549150e-001 0.000000e+000
         vertex 2.730047e+000 5.449674e-001 0.000000e+000
      endloop
   endfacet
   facet normal -4.999584e-001 -8.660494e-001 0.000000e+000
      outer loop
         vertex 2.061074e+000 9.549150e-001 7.000000e+000
         vertex 2.730047e+000 5.449674e-001 0.000000e+000
         vertex 2.730047e+000 5.449674e-001 7.000000e+000
      endloop
   endfacet
   facet normal -4.067805e-001 -9.135259e-001 0.000000e+000
      outer loop
         vertex 2.730047e+000 5.449674e-001 7.000000e+000
         vertex 2.730047e+000 5.449674e-001 0.000000e+000
         vertex 3.454915e+000 2.447174e-001 0.000000e+000
      endloop
   endfacet
   facet normal -3.583232e-001 -9.335976e-001 0.000000e+000
      outer loop
         vertex 2.730047e+000 5.449674e-001 7.000000e+000
         vertex 3.454915e+000 2.447174e-001 0.000000e+000
         vertex 3.454915e+000 2.447174e-001 7.000000e+000
      endloop
   endfacet
   facet normal -2.588653e-001 -9.659134e-001 0.000000e+000
      outer loop
         vertex 3.454915e+000 2.447174e-001 7.000000e+000
         vertex 3.454915e+000 2.447174e-001 0.000000e+000
         vertex 4.217828e+000 6.155830e-002 0.000000e+000
      endloop
   endfacet
   facet normal -2.078648e-001 -9.781575e-001 0.000000e+000
      outer loop
         vertex 3.454915e+000 2.447174e-001 7.000000e+000
         vertex 4.217828e+000 6.155830e-002 0.000000e+000
         vertex 4.217828e+000 6.155830e-002 7.000000e+000
      endloop
   endfacet
   facet normal -1.045761e-001 -9.945168e-001 0.000000e+000
      outer loop
         vertex 4.217828e+000 6.155830e-002 7.000000e+000
         vertex 4.217828e+000 6.155830e-002 0.000000e+000
         vertex 5.000000e+000 0.000000e+000 0.000000e+000
      endloop
   endfacet
   facet normal -5.228807e-002 -9.986320e-001 0.000000e+000
      outer loop
         vertex 4.217828e+000 6.155830e-002 7.000000e+000
         vertex 5.000000e+000 0.000000e+000 0.000000e+000
         vertex 5.000000e+000 0.000000e+000 7.000000e+000
      endloop
   endfacet
   facet normal 5.228807e-002 -9.986320e-001 0.000000e+000
      outer loop
         vertex 3.500000e+001 0.000000e+000 7.000000e+000
         vertex 3.500000e+001 0.000000e+000 0.000000e+000
         vertex 3.578217e+001 6.155830e-002 0.000000e+000
      endloop
   endfacet
   facet normal 1.045761e-001 -9.945168e-001 0.000000e+000
      outer loop
         vertex 3.500000e+001 0.000000e+000 7.000000e+000
         vertex 3.578217e+001 6.155830e-002 0.000000e+000
         vertex 3.578217e+001 6.155830e-002 7.000000e+000
      endloop
   endfacet
   facet normal 2.078648e-001 -9.781576e-001 0.000000e+000
      outer loop
         vertex 3.578217e+001 6.155830e-002 7.000000e+000
         vertex 3.578217e+001 6.155830e-002 0.000000e+000
         vertex 3.654509e+001 2.447174e-001 0.000000e+000
      endloop
   endfacet
   facet normal 2.588653e-001 -9.659134e-001 0.000000e+000
      outer loop
         vertex 3.578217e+001 6.155830e-002 7.000000e+000
         vertex 3.654509e+001 2.447174e-001 0.000000e+000
         vertex 3.654509e+001 2.447174e-001 7.000000e+000
      endloop
   endfacet
   facet normal 3.583232e-001 -9.335976e-001 0.000000e+000
      outer loop
         vertex 3.654509e+001 2.447174e-001 7.000000e+000
         vertex 3.654509e+001 2.447174e-001 0.000000e+000
         vertex 3.726995e+001 5.449674e-001 0.000000e+000
      endloop
   endfacet
   facet normal 4.067805e-001 -9.135259e-001 0.000000e+000
      outer loop
         vertex 3.654509e+001 2.447174e-001 7.000000e+000
         vertex 3.726995e+001 5.449674e-001 0.000000e+000
         vertex 3.726995e+001 5.449674e-001 7.000000e+000
      endloop
   endfacet
   facet normal 4.999584e-001 -8.660494e-001 0.000000e+000
      outer loop
         vertex 3.726995e+001 5.449674e-001 7.000000e+000
         vertex 3.726995e+001 5.449674e-001 0.000000e+000
         vertex 3.793893e+001 9.549150e-001 0.000000e+000
      endloop
   endfacet
   facet normal 5.446792e-001 -8.386444e-001 0.000000e+000
      outer loop
         vertex 3.726995e+001 5.449674e-001 7.000000e+000
         vertex 3.793893e+001 9.549150e-001 0.000000e+000
         vertex 3.793893e+001 9.549150e-001 7.000000e+000
      endloop
   endfacet
   facet normal 6.292831e-001 -7.771761e-001 0.000000e+000
      outer loop
         vertex 3.793893e+001 9.549150e-001 7.000000e+000
         vertex 3.793893e+001 9.549150e-001 0.000000e+000
         vertex 3.853553e+001 1.464466e+000 0.000000e+000
      endloop
   endfacet
   facet normal 6.691663e-001 -7.431127e-001 0.000000e+000
      outer loop
         vertex 3.793893e+001 9.549150e-001 7.000000e+000
         vertex 3.853553e+001 1.464466e+000 0.000000e+000
         vertex 3.853553e+001 1.464466e+000 7.000000e+000
      endloop
   endfacet
   facet normal 7.431127e-001 -6.691663e-001 0.000000e+000
      outer loop
         vertex 3.853553e+001 1.464466e+000 7.000000e+000
         vertex 3.853553e+001 1.464466e+000 0.000000e+000
         vertex 3.904509e+001 2.061074e+000 0.000000e+000
      endloop
   endfacet
   facet normal 7.771761e-001 -6.292831e-001 0.000000e+000
      outer loop
         vertex 3.853553e+001 1.464466e+000 7.000000e+000
         vertex 3.904509e+001 2.061074e+000 0.000000e+000
         vertex 3.904509e+001 2.061074e+000 7.000000e+000
      endloop
   endfacet
   facet normal 8.386444e-001 -5.446792e-001 0.000000e+000
      outer loop
         vertex 3.904509e+001 2.061074e+000 7.000000e+000
         vertex 3.904509e+001 2.061074e+000 0.000000e+000
         vertex 3.945503e+001 2.730047e+000 0.000000e+000
      endloop
   endfacet
   facet normal 8.660494e-001 -4.999584e-001 0.000000e+000
      outer loop
         vertex 3.904509e+001 2.061074e+000 7.000000e+000
         vertex 3.945503e+001 2.730047e+000 0.000000e+000
         vertex 3.945503e+001 2.730047e+000 7.000000e+000
      endloop
   endfacet
   facet normal 9.135259e-001 -4.067805e-001 0.000000e+000
      outer loop
         vertex 3.945503e+001 2.730047e+000 7.000000e+000
         vertex 3.945503e+001 2.730047e+000 0.000000e+000
         vertex 3.975528e+001 3.454915e+000 0.000000e+000
      endloop
   endfacet
   facet normal 9.335976e-001 -3.583232e-001 0.000000e+000
      outer loop
         vertex 3.945503e+001 2.730047e+000 7.000000e+000
         vertex 3.975528e+001 3.454915e+000 0.000000e+000
         vertex 3.975528e+001 3.454915e+000 7.000000e+000
      endloop
   endfacet
   facet normal 9.659134e-001 -2.588653e-001 0.000000e+000
      outer loop
         vertex 3.975528e+001 3.454915e+000 7.000000e+000
         vertex 3.975528e+001 3.454915e+000 0.000000e+000
         vertex 3.993844e+001 4.217828e+000 0.000000e+000
      endloop
   endfacet
   facet normal 9.781575e-001 -2.078648e-001 0.000000e+000
      outer loop
         vertex 3.975528e+001 3.454915e+000 7.000000e+000
         vertex 3.993844e+001 4.217828e+000 0.000000e+000
         vertex 3.993844e+001 4.217828e+000 7.000000e+000
      endloop
   endfacet
   facet normal 9.945168e-001 -1.045761e-001 0.000000e+000
      outer loop
         vertex 3.993844e+001 4.217828e+000 7.000000e+000
         vertex 3.993844e+001 4.217828e+000 0.000000e+000
         vertex 4.000000e+001 5.000000e+000 0.000000e+000
      endloop
   endfacet
   facet normal 9.986320e-001 -5.228807e-002 0.000000e+000
      outer loop
         vertex 3.993844e+001 4.217828e+000 7.000000e+000
         vertex 4.000000e+001 5.000000e+000 0.000000e+000
         vertex 4.000000e+001 5.000000e+000 7.000000e+000
      endloop
   endfacet
   facet normal 9.993014e-001 3.737375e-002 0.000000e+000
      outer loop
         vertex 4.000000e+001 3.100000e+001 7.000000e+000
         vertex 4.000000e+001 3.100000e+001 0.000000e+000
         vertex 3.988053e+001 3.312733e+001 0.000000e+000
      endloop
   endfacet
   facet normal 9.972025e-001 7.474750e-002 0.000000e+000
      outer loop
         vertex 4.000000e+001 3.100000e+001 7.000000e+000
         vertex 3.988053e+001 3.312733e+001 0.000000e+000
         vertex 3.988053e+001 3.312733e+001 7.000000e+000
      endloop
   endfacet
   facet normal 9.888334e-001 1.490250e-001 0.000000e+000
      outer loop
         vertex 3.988053e+001 3.312733e+001 7.000000e+000
         vertex 3.988053e+001 3.312733e+001 0.000000e+000
         vertex 3.952363e+001 3.522790e+001 0.000000e+000
      endloop
   endfacet
   facet normal 9.825633e-001 1.859288e-001 0.000000e+000
      outer loop
         vertex 3.988053e+001 3.312733e+001 7.000000e+000
         vertex 3.952363e+001 3.522790e+001 0.000000e+000
         vertex 3.952363e+001 3.522790e+001 7.000000e+000
      endloop
   endfacet
   facet normal 9.659303e-001 2.588021e-001 0.000000e+000
      outer loop
         vertex 3.952363e+001 3.522790e+001 7.000000e+000
         vertex 3.952363e+001 3.522790e+001 0.000000e+000
         vertex 3.893378e+001 3.727530e+001 0.000000e+000
      endloop
   endfacet
   facet normal 9.555677e-001 2.947719e-001 0.000000e+000
      outer loop
         vertex 3.952363e+001 3.522790e+001 7.000000e+000
         vertex 3.893378e+001 3.727530e+001 0.000000e+000
         vertex 3.893378e+001 3.727530e+001 7.000000e+000
      endloop
   endfacet
   facet normal 9.308801e-001 3.653248e-001 0.000000e+000
      outer loop
         vertex 3.893378e+001 3.727530e+001 7.000000e+000
         vertex 3.893378e+001 3.727530e+001 0.000000e+000
         vertex 3.811841e+001 3.924379e+001 0.000000e+000
      endloop
   endfacet
   facet normal 9.165552e-001 3.999080e-001 0.000000e+000
      outer loop
         vertex 3.893378e+001 3.727530e+001 7.000000e+000
         vertex 3.811841e+001 3.924379e+001 0.000000e+000
         vertex 3.811841e+001 3.924379e+001 7.000000e+000
      endloop
   endfacet
   facet normal 8.841236e-001 4.672532e-001 0.000000e+000
      outer loop
         vertex 3.811841e+001 3.924379e+001 7.000000e+000
         vertex 3.811841e+001 3.924379e+001 0.000000e+000
         vertex 3.708776e+001 4.110861e+001 0.000000e+000
      endloop
   endfacet
   facet normal 8.660167e-001 5.000151e-001 0.000000e+000
      outer loop
         vertex 3.811841e+001 3.924379e+001 7.000000e+000
         vertex 3.708776e+001 4.110861e+001 0.000000e+000
         vertex 3.708776e+001 4.110861e+001 7.000000e+000
      endloop
   endfacet
   facet normal 8.262486e-001 5.633056e-001 0.000000e+000
      outer loop
         vertex 3.708776e+001 4.110861e+001 7.000000e+000
         vertex 3.708776e+001 4.110861e+001 0.000000e+000
         vertex 3.585480e+001 4.284631e+001 0.000000e+000
      endloop
   endfacet
   facet normal 8.045874e-001 5.938342e-001 0.000000e+000
      outer loop
         vertex 3.708776e+001 4.110861e+001 7.000000e+000
         vertex 3.585480e+001 4.284631e+001 0.000000e+000
         vertex 3.585480e+001 4.284631e+001 7.000000e+000
      endloop
   endfacet
   facet normal 7.579831e-001 6.522741e-001 0.000000e+000
      outer loop
         vertex 3.585480e+001 4.284631e+001 7.000000e+000
         vertex 3.585480e+001 4.284631e+001 0.000000e+000
         vertex 3.443503e+001 4.443503e+001 0.000000e+000
      endloop
   endfacet
   facet normal 7.330400e-001 6.801855e-001 0.000000e+000
      outer loop
         vertex 3.585480e+001 4.284631e+001 7.000000e+000
         vertex 3.443503e+001 4.443503e+001 0.000000e+000
         vertex 3.443503e+001 4.443503e+001 7.000000e+000
      endloop
   endfacet
   facet normal 6.801856e-001 7.330400e-001 0.000000e+000
      outer loop
         vertex 3.443503e+001 4.443503e+001 7.000000e+000
         vertex 3.443503e+001 4.443503e+001 0.000000e+000
         vertex 3.284631e+001 4.585480e+001 0.000000e+000
      endloop
   endfacet
   facet normal 6.522741e-001 7.579831e-001 0.000000e+000
      outer loop
         vertex 3.443503e+001 4.443503e+001 7.000000e+000
         vertex 3.284631e+001 4.585480e+001 0.000000e+000
         vertex 3.284631e+001 4.585480e+001 7.000000e+000
      endloop
   endfacet
   facet normal 5.938342e-001 8.045874e-001 0.000000e+000
      outer loop
         vertex 3.284631e+001 4.585480e+001 7.000000e+000
         vertex 3.284631e+001 4.585480e+001 0.000000e+000
         vertex 3.110861e+001 4.708776e+001 0.000000e+000
      endloop
   endfacet
   facet normal 5.633056e-001 8.262486e-001 0.000000e+000
      outer loop
         vertex 3.284631e+001 4.585480e+001 7.000000e+000
         vertex 3.110861e+001 4.708776e+001 0.000000e+000
         vertex 3.110861e+001 4.708776e+001 7.000000e+000
      endloop
   endfacet
   facet normal 5.000151e-001 8.660167e-001 0.000000e+000
      outer loop
         vertex 3.110861e+001 4.708776e+001 7.000000e+000
         vertex 3.110861e+001 4.708776e+001 0.000000e+000
         vertex 2.924379e+001 4.811841e+001 0.000000e+000
      endloop
   endfacet
   facet normal 4.672532e-001 8.841236e-001 0.000000e+000
      outer loop
         vertex 3.110861e+001 4.708776e+001 7.000000e+000
         vertex 2.924379e+001 4.811841e+001 0.000000e+000
         vertex 2.924379e+001 4.811841e+001 7.000000e+000
      endloop
   endfacet
   facet normal 3.999080e-001 9.165552e-001 0.000000e+000
      outer loop
         vertex 2.924379e+001 4.811841e+001 7.000000e+000
         vertex 2.924379e+001 4.811841e+001 0.000000e+000
         vertex 2.727530e+001 4.893378e+001 0.000000e+000
      endloop
   endfacet
   facet normal 3.653248e-001 9.308801e-001 0.000000e+000
      outer loop
         vertex 2.924379e+001 4.811841e+001 7.000000e+000
         vertex 2.727530e+001 4.893378e+001 0.000000e+000
         vertex 2.727530e+001 4.893378e+001 7.000000e+000
      endloop
   endfacet
   facet normal 2.947719e-001 9.555677e-001 0.000000e+000
      outer loop
         vertex 2.727530e+001 4.893378e+001 7.000000e+000
         vertex 2.727530e+001 4.893378e+001 0.000000e+000
         vertex 2.522790e+001 4.952363e+001 0.000000e+000
      endloop
   endfacet
   facet normal 2.588022e-001 9.659303e-001 0.000000e+000
      outer loop
         vertex 2.727530e+001 4.893378e+001 7.000000e+000
         vertex 2.522790e+001 4.952363e+001 0.000000e+000
         vertex 2.522790e+001 4.952363e+001 7.000000e+000
      endloop
   endfacet
   facet normal 1.859288e-001 9.825633e-001 0.000000e+000
      outer loop
         vertex 2.522790e+001 4.952363e+001 7.000000e+000
         vertex 2.522790e+001 4.952363e+001 0.000000e+000
         vertex 2.312733e+001 4.988053e+001 0.000000e+000
      endloop
   endfacet
   facet normal 1.490250e-001 9.888334e-001 0.000000e+000
      outer loop
         vertex 2.522790e+001 4.952363e+001 7.000000e+000
         vertex 2.312733e+001 4.988053e+001 0.000000e+000
         vertex 2.312733e+001 4.988053e+001 7.000000e+000
      endloop
   endfacet
   facet normal 7.474750e-002 9.972025e-001 0.000000e+000
      outer loop
         vertex 2.312733e+001 4.988053e+001 7.000000e+000
         vertex 2.312733e+001 4.988053e+001 0.000000e+000
         vertex 2.100000e+001 5.000000e+001 0.000000e+000
      endloop
   endfacet
   facet normal 3.737375e-002 9.993014e-001 0.000000e+000
      outer loop
         vertex 2.312733e+001 4.988053e+001 7.000000e+000
         vertex 2.100000e+001 5.000000e+001 0.000000e+000
         vertex 2.100000e+001 5.000000e+001 7.000000e+000
      endloop
   endfacet
   facet normal -3.737375e-002 9.993014e-001 0.000000e+000
      outer loop
         vertex 1.900000e+001 5.000000e+001 7.000000e+000
         vertex 1.900000e+001 5.000000e+001 0.000000e+000
         vertex 1.687267e+001 4.988053e+001 0.000000e+000
      endloop
   endfacet
   facet normal -7.474750e-002 9.972025e-001 0.000000e+000
      outer loop
         vertex 1.900000e+001 5.000000e+001 7.000000e+000
         vertex 1.687267e+001 4.988053e+001 0.000000e+000
         vertex 1.687267e+001 4.988053e+001 7.000000e+000
      endloop
   endfacet
   facet normal -1.490250e-001 9.888334e-001 0.000000e+000
      outer loop
         vertex 1.687267e+001 4.988053e+001 7.000000e+000
         vertex 1.687267e+001 4.988053e+001 0.000000e+000
         vertex 1.477210e+001 4.952363e+001 0.000000e+000
      endloop
   endfacet
   facet normal -1.859288e-001 9.825633e-001 0.000000e+000
      outer loop
         vertex 1.687267e+001 4.988053e+001 7.000000e+000
         vertex 1.477210e+001 4.952363e+001 0.000000e+000
         vertex 1.477210e+001 4.952363e+001 7.000000e+000
      endloop
   endfacet
   facet normal -2.588021e-001 9.659303e-001 0.000000e+000
      outer loop
         vertex 1.477210e+001 4.952363e+001 7.000000e+000
         vertex 1.477210e+001 4.952363e+001 0.000000e+000
         vertex 1.272470e+001 4.893378e+001 0.000000e+000
      endloop
   endfacet
   facet normal -2.947719e-001 9.555677e-001 0.000000e+000
      outer loop
         vertex 1.477210e+001 4.952363e+001 7.000000e+000
         vertex 1.272470e+001 4.893378e+001 0.000000e+000
         vertex 1.272470e+001 4.893378e+001 7.000000e+000
      endloop
   endfacet
   facet normal -3.653248e-001 9.308801e-001 0.000000e+000
      outer loop
         vertex 1.272470e+001 4.893378e+001 7.000000e+000
         vertex 1.272470e+001 4.893378e+001 0.000000e+000
         vertex 1.075621e+001 4.811841e+001 0.000000e+000
      endloop
   endfacet
   facet normal -3.999080e-001 9.165552e-001 0.000000e+000
      outer loop
         vertex 1.272470e+001 4.893378e+001 7.000000e+000
         vertex 1.075621e+001 4.811841e+001 0.000000e+000
         vertex 1.075621e+001 4.811841e+001 7.000000e+000
      endloop
   endfacet
   facet normal -4.672532e-001 8.841236e-001 0.000000e+000
      outer loop
         vertex 1.075621e+001 4.811841e+001 7.000000e+000
         vertex 1.075621e+001 4.811841e+001 0.000000e+000
         vertex 8.891391e+000 4.708776e+001 0.000000e+000
      endloop
   endfacet
   facet normal -5.000151e-001 8.660167e-001 0.000000e+000
      outer loop
         vertex 1.075621e+001 4.811841e+001 7.000000e+000
         vertex 8.891391e+000 4.708776e+001 0.000000e+000
         vertex 8.891391e+000 4.708776e+001 7.000000e+000
      endloop
   endfacet
   facet normal -5.633056e-001 8.262486e-001 0.000000e+000
      outer loop
         vertex 8.891391e+000 4.708776e+001 7.000000e+000
         vertex 8.891391e+000 4.708776e+001 0.000000e+000
         vertex 7.153694e+000 4.585480e+001 0.000000e+000
      endloop
   endfacet
   facet normal -5.938342e-001 8.045874e-001 0.000000e+000
      outer loop
         vertex 8.891391e+000 4.708776e+001 7.000000e+000
         vertex 7.153694e+000 4.585480e+001 0.000000e+000
         vertex 7.153694e+000 4.585480e+001 7.000000e+000
      endloop
   endfacet
   facet normal -6.522741e-001 7.579831e-001 0.000000e+000
      outer loop
         vertex 7.153694e+000 4.585480e+001 7.000000e+000
         vertex 7.153694e+000 4.585480e+001 0.000000e+000
         vertex 5.564971e+000 4.443503e+001 0.000000e+000
      endloop
   endfacet
   facet normal -6.801855e-001 7.330400e-001 0.000000e+000
      outer loop
         vertex 7.153694e+000 4.585480e+001 7.000000e+000
         vertex 5.564971e+000 4.443503e+001 0.000000e+000
         vertex 5.564971e+000 4.443503e+001 7.000000e+000
      endloop
   endfacet
   facet normal -7.330400e-001 6.801856e-001 0.000000e+000
      outer loop
         vertex 5.564971e+000 4.443503e+001 7.000000e+000
         vertex 5.564971e+000 4.443503e+001 0.000000e+000
         vertex 4.145202e+000 4.284631e+001 0.000000e+000
      endloop
   endfacet
   facet normal -7.579831e-001 6.522741e-001 0.000000e+000
      outer loop
         vertex 5.564971e+000 4.443503e+001 7.000000e+000
         vertex 4.145202e+000 4.284631e+001 0.000000e+000
         vertex 4.145202e+000 4.284631e+001 7.000000e+000
      endloop
   endfacet
   facet normal -8.045874e-001 5.938342e-001 0.000000e+000
      outer loop
         vertex 4.145202e+000 4.284631e+001 7.000000e+000
         vertex 4.145202e+000 4.284631e+001 0.000000e+000
         vertex 2.912240e+000 4.110861e+001 0.000000e+000
      endloop
   endfacet
   facet normal -8.262486e-001 5.633056e-001 0.000000e+000
      outer loop
         vertex 4.145202e+000 4.284631e+001 7.000000e+000
         vertex 2.912240e+000 4.110861e+001 0.000000e+000
         vertex 2.912240e+000 4.110861e+001 7.000000e+000
      endloop
   endfacet
   facet normal -8.660167e-001 5.000151e-001 0.000000e+000
      outer loop
         vertex 2.912240e+000 4.110861e+001 7.000000e+000
         vertex 2.912240e+000 4.110861e+001 0.000000e+000
         vertex 1.881592e+000 3.924379e+001 0.000000e+000
      endloop
   endfacet
   facet normal -8.841236e-001 4.672532e-001 0.000000e+000
      outer loop
         vertex 2.912240e+000 4.110861e+001 7.000000e+000
         vertex 1.881592e+000 3.924379e+001 0.000000e+000
         vertex 1.881592e+000 3.924379e+001 7.000000e+000
      endloop
   endfacet
   facet normal -9.165552e-001 3.999080e-001 0.000000e+000
      outer loop
         vertex 1.881592e+000 3.924379e+001 7.000000e+000
         vertex 1.881592e+000 3.924379e+001 0.000000e+000
         vertex 1.066217e+000 3.727530e+001 0.000000e+000
      endloop
   endfacet
   facet normal -9.308801e-001 3.653248e-001 0.000000e+000
      outer loop
         vertex 1.881592e+000 3.924379e+001 7.000000e+000
         vertex 1.066217e+000 3.727530e+001 0.000000e+000
         vertex 1.066217e+000 3.727530e+001 7.000000e+000
      endloop
   endfacet
   facet normal -9.555677e-001 2.947719e-001 0.000000e+000
      outer loop
         vertex 1.066217e+000 3.727530e+001 7.000000e+000
         vertex 1.066217e+000 3.727530e+001 0.000000e+000
         vertex 4.763696e-001 3.522790e+001 0.000000e+000
      endloop
   endfacet
   facet normal -9.659303e-001 2.588022e-001 0.000000e+000
      outer loop
         vertex 1.066217e+000 3.727530e+001 7.000000e+000
         vertex 4.763696e-001 3.522790e+001 0.000000e+000
         vertex 4.763696e-001 3.522790e+001 7.000000e+000
      endloop
   endfacet
   facet normal -9.825633e-001 1.859288e-001 0.000000e+000
      outer loop
         vertex 4.763696e-001 3.522790e+001 7.000000e+000
         vertex 4.763696e-001 3.522790e+001 0.000000e+000
         vertex 1.194680e-001 3.312733e+001 0.000000e+000
      endloop
   endfacet
   facet normal -9.888334e-001 1.490250e-001 0.000000e+000
      outer loop
         vertex 4.763696e-001 3.522790e+001 7.000000e+000
         vertex 1.194680e-001 3.312733e+001 0.000000e+000
         vertex 1.194680e-001 3.312733e+001 7.000000e+000
      endloop
   endfacet
   facet normal -9.972025e-001 7.474750e-002 0.000000e+000
      outer loop
         vertex 1.194680e-001 3.312733e+001 7.000000e+000
         vertex 1.194680e-001 3.312733e+001 0.000000e+000
         vertex 0.000000e+000 3.100000e+001 0.000000e+000
      endloop
   endfacet
   facet normal -9.993014e-001 3.737375e-002 0.000000e+000
      outer loop
         vertex 1.194680e-001 3.312733e+001 7.000000e+000
         vertex 0.000000e+000 3.100000e+001 0.000000e+000
         vertex 0.000000e+000 3.100000e+001 7.000000e+000
      endloop
   endfacet
   facet normal 9.984018e-001 5.651454e-002 0.000000e+000
      outer loop
         vertex 1.767178e+001 3.072079e+001 7.000000e+000
         vertex 1.763780e+001 3.112000e+001 0.000000e+000
         vertex 1.763780e+001 3.112000e+001 7.000000e+000
      endloop
   endfacet
   facet normal 9.984018e-001 -5.651454e-002 0.000000e+000
      outer loop
         vertex 1.763780e+001 3.112000e+001 7.000000e+000
         vertex 1.763780e+001 3.112000e+001 0.000000e+000
         vertex 1.767178e+001 3.151921e+001 0.000000e+000
      endloop
   endfacet
   facet normal 9.935917e-001 -1.130291e-001 0.000000e+000
      outer loop
         vertex 1.763780e+001 3.112000e+001 7.000000e+000
         vertex 1.767178e+001 3.151921e+001 0.000000e+000
         vertex 1.767178e+001 3.151921e+001 7.000000e+000
      endloop
   endfacet
   facet normal 9.744897e-001 -2.244324e-001 0.000000e+000
      outer loop
         vertex 1.767178e+001 3.151921e+001 7.000000e+000
         vertex 1.767178e+001 3.151921e+001 0.000000e+000
         vertex 1.777273e+001 3.190694e+001 0.000000e+000
      endloop
   endfacet
   facet normal 9.601977e-001 -2.793211e-001 0.000000e+000
      outer loop
         vertex 1.767178e+001 3.151921e+001 7.000000e+000
         vertex 1.777273e+001 3.190694e+001 0.000000e+000
         vertex 1.777273e+001 3.190694e+001 7.000000e+000
      endloop
   endfacet
   facet normal 9.225433e-001 -3.858936e-001 0.000000e+000
      outer loop
         vertex 1.777273e+001 3.190694e+001 7.000000e+000
         vertex 1.777273e+001 3.190694e+001 0.000000e+000
         vertex 1.793777e+001 3.227203e+001 0.000000e+000
      endloop
   endfacet
   facet normal 8.991807e-001 -4.375775e-001 0.000000e+000
      outer loop
         vertex 1.777273e+001 3.190694e+001 7.000000e+000
         vertex 1.793777e+001 3.227203e+001 0.000000e+000
         vertex 1.793777e+001 3.227203e+001 7.000000e+000
      endloop
   endfacet
   facet normal 8.440570e-001 -5.362535e-001 0.000000e+000
      outer loop
         vertex 1.793777e+001 3.227203e+001 7.000000e+000
         vertex 1.793777e+001 3.227203e+001 0.000000e+000
         vertex 1.816212e+001 3.260398e+001 0.000000e+000
      endloop
   endfacet
   facet normal 8.122959e-001 -5.832456e-001 0.000000e+000
      outer loop
         vertex 1.793777e+001 3.227203e+001 7.000000e+000
         vertex 1.816212e+001 3.260398e+001 0.000000e+000
         vertex 1.816212e+001 3.260398e+001 7.000000e+000
      endloop
   endfacet
   facet normal 7.412888e-001 -6.711863e-001 0.000000e+000
      outer loop
         vertex 1.816212e+001 3.260398e+001 7.000000e+000
         vertex 1.816212e+001 3.260398e+001 0.000000e+000
         vertex 1.843935e+001 3.289324e+001 0.000000e+000
      endloop
   endfacet
   facet normal 7.020428e-001 -7.121348e-001 0.000000e+000
      outer loop
         vertex 1.816212e+001 3.260398e+001 7.000000e+000
         vertex 1.843935e+001 3.289324e+001 0.000000e+000
         vertex 1.843935e+001 3.289324e+001 7.000000e+000
      endloop
   endfacet
   facet normal 6.171949e-001 -7.868103e-001 0.000000e+000
      outer loop
         vertex 1.843935e+001 3.289324e+001 7.000000e+000
         vertex 1.843935e+001 3.289324e+001 0.000000e+000
         vertex 1.876148e+001 3.313148e+001 0.000000e+000
      endloop
   endfacet
   facet normal 5.715931e-001 -8.205372e-001 0.000000e+000
      outer loop
         vertex 1.843935e+001 3.289324e+001 7.000000e+000
         vertex 1.876148e+001 3.313148e+001 0.000000e+000
         vertex 1.876148e+001 3.313148e+001 7.000000e+000
      endloop
   endfacet
   facet normal 4.753455e-001 -8.797992e-001 0.000000e+000
      outer loop
         vertex 1.876148e+001 3.313148e+001 7.000000e+000
         vertex 1.876148e+001 3.313148e+001 0.000000e+000
         vertex 1.911924e+001 3.331186e+001 0.000000e+000
      endloop
   endfacet
   facet normal 4.246998e-001 -9.053342e-001 0.000000e+000
      outer loop
         vertex 1.876148e+001 3.313148e+001 7.000000e+000
         vertex 1.911924e+001 3.331186e+001 0.000000e+000
         vertex 1.911924e+001 3.331186e+001 7.000000e+000
      endloop
   endfacet
   facet normal 3.198213e-001 -9.474779e-001 0.000000e+000
      outer loop
         vertex 1.911924e+001 3.331186e+001 7.000000e+000
         vertex 1.911924e+001 3.331186e+001 0.000000e+000
         vertex 1.950233e+001 3.342918e+001 0.000000e+000
      endloop
   endfacet
   facet normal 2.655886e-001 -9.640865e-001 0.000000e+000
      outer loop
         vertex 1.911924e+001 3.331186e+001 7.000000e+000
         vertex 1.950233e+001 3.342918e+001 0.000000e+000
         vertex 1.950233e+001 3.342918e+001 7.000000e+000
      endloop
   endfacet
   facet normal 1.550965e-001 -9.878993e-001 0.000000e+000
      outer loop
         vertex 1.950233e+001 3.342918e+001 7.000000e+000
         vertex 1.950233e+001 3.342918e+001 0.000000e+000
         vertex 1.989974e+001 3.348007e+001 0.000000e+000
      endloop
   endfacet
   facet normal 9.883699e-002 -9.951036e-001 0.000000e+000
      outer loop
         vertex 1.950233e+001 3.342918e+001 7.000000e+000
         vertex 1.989974e+001 3.348007e+001 0.000000e+000
         vertex 1.989974e+001 3.348007e+001 7.000000e+000
      endloop
   endfacet
   facet normal -1.409025e-002 -9.999007e-001 0.000000e+000
      outer loop
         vertex 1.989974e+001 3.348007e+001 7.000000e+000
         vertex 1.989974e+001 3.348007e+001 0.000000e+000
         vertex 2.030004e+001 3.346307e+001 0.000000e+000
      endloop
   endfacet
   facet normal -7.075802e-002 -9.974935e-001 0.000000e+000
      outer loop
         vertex 1.989974e+001 3.348007e+001 7.000000e+000
         vertex 2.030004e+001 3.346307e+001 0.000000e+000
         vertex 2.030004e+001 3.346307e+001 7.000000e+000
      endloop
   endfacet
   facet normal -1.828716e-001 -9.831368e-001 0.000000e+000
      outer loop
         vertex 2.030004e+001 3.346307e+001 7.000000e+000
         vertex 2.030004e+001 3.346307e+001 0.000000e+000
         vertex 2.069171e+001 3.337866e+001 0.000000e+000
      endloop
   endfacet
   facet normal -2.383175e-001 -9.711873e-001 0.000000e+000
      outer loop
         vertex 2.030004e+001 3.346307e+001 7.000000e+000
         vertex 2.069171e+001 3.337866e+001 0.000000e+000
         vertex 2.069171e+001 3.337866e+001 7.000000e+000
      endloop
   endfacet
   facet normal -3.463921e-001 -9.380898e-001 0.000000e+000
      outer loop
         vertex 2.069171e+001 3.337866e+001 7.000000e+000
         vertex 2.069171e+001 3.337866e+001 0.000000e+000
         vertex 2.106347e+001 3.322927e+001 0.000000e+000
      endloop
   endfacet
   facet normal -3.990209e-001 -9.169418e-001 0.000000e+000
      outer loop
         vertex 2.069171e+001 3.337866e+001 7.000000e+000
         vertex 2.106347e+001 3.322927e+001 0.000000e+000
         vertex 2.106347e+001 3.322927e+001 7.000000e+000
      endloop
   endfacet
   facet normal -4.999475e-001 -8.660557e-001 0.000000e+000
      outer loop
         vertex 2.106347e+001 3.322927e+001 7.000000e+000
         vertex 2.106347e+001 3.322927e+001 0.000000e+000
         vertex 2.140464e+001 3.301920e+001 0.000000e+000
      endloop
   endfacet
   facet normal -5.482453e-001 -8.363176e-001 0.000000e+000
      outer loop
         vertex 2.106347e+001 3.322927e+001 7.000000e+000
         vertex 2.140464e+001 3.301920e+001 0.000000e+000
         vertex 2.140464e+001 3.301920e+001 7.000000e+000
      endloop
   endfacet
   facet normal -6.391203e-001 -7.691067e-001 0.000000e+000
      outer loop
         vertex 2.140464e+001 3.301920e+001 7.000000e+000
         vertex 2.140464e+001 3.301920e+001 0.000000e+000
         vertex 2.170540e+001 3.275450e+001 0.000000e+000
      endloop
   endfacet
   facet normal -6.816977e-001 -7.316340e-001 0.000000e+000
      outer loop
         vertex 2.140464e+001 3.301920e+001 7.000000e+000
         vertex 2.170540e+001 3.275450e+001 0.000000e+000
         vertex 2.170540e+001 3.275450e+001 7.000000e+000
      endloop
   endfacet
   facet normal -7.599069e-001 -6.500320e-001 0.000000e+000
      outer loop
         vertex 2.170540e+001 3.275450e+001 7.000000e+000
         vertex 2.170540e+001 3.275450e+001 0.000000e+000
         vertex 2.195711e+001 3.244277e+001 0.000000e+000
      endloop
   endfacet
   facet normal -7.955388e-001 -6.059027e-001 0.000000e+000
      outer loop
         vertex 2.170540e+001 3.275450e+001 7.000000e+000
         vertex 2.195711e+001 3.244277e+001 0.000000e+000
         vertex 2.195711e+001 3.244277e+001 7.000000e+000
      endloop
   endfacet
   facet normal -8.588322e-001 -5.122570e-001 0.000000e+000
      outer loop
         vertex 2.195711e+001 3.244277e+001 7.000000e+000
         vertex 2.195711e+001 3.244277e+001 0.000000e+000
         vertex 2.215250e+001 3.209299e+001 0.000000e+000
      endloop
   endfacet
   facet normal -8.864937e-001 -4.627406e-001 0.000000e+000
      outer loop
         vertex 2.195711e+001 3.244277e+001 7.000000e+000
         vertex 2.215250e+001 3.209299e+001 0.000000e+000
         vertex 2.215250e+001 3.209299e+001 7.000000e+000
      endloop
   endfacet
   facet normal -9.330506e-001 -3.597453e-001 0.000000e+000
      outer loop
         vertex 2.215250e+001 3.209299e+001 7.000000e+000
         vertex 2.215250e+001 3.209299e+001 0.000000e+000
         vertex 2.228598e+001 3.171522e+001 0.000000e+000
      endloop
   endfacet
   facet normal -9.519458e-001 -3.062663e-001 0.000000e+000
      outer loop
         vertex 2.215250e+001 3.209299e+001 7.000000e+000
         vertex 2.228598e+001 3.171522e+001 0.000000e+000
         vertex 2.228598e+001 3.171522e+001 7.000000e+000
      endloop
   endfacet
   facet normal -9.804267e-001 -1.968844e-001 0.000000e+000
      outer loop
         vertex 2.228598e+001 3.171522e+001 7.000000e+000
         vertex 2.228598e+001 3.171522e+001 0.000000e+000
         vertex 2.235369e+001 3.132033e+001 0.000000e+000
      endloop
   endfacet
   facet normal -9.900123e-001 -1.409813e-001 0.000000e+000
      outer loop
         vertex 2.228598e+001 3.171522e+001 7.000000e+000
         vertex 2.235369e+001 3.132033e+001 0.000000e+000
         vertex 2.235369e+001 3.132033e+001 7.000000e+000
      endloop
   endfacet
   facet normal -9.995977e-001 -2.835944e-002 0.000000e+000
      outer loop
         vertex 2.235369e+001 3.132033e+001 7.000000e+000
         vertex 2.235369e+001 3.132033e+001 0.000000e+000
         vertex 2.235369e+001 3.091967e+001 0.000000e+000
      endloop
   endfacet
   facet normal -9.995977e-001 2.835944e-002 0.000000e+000
      outer loop
         vertex 2.235369e+001 3.132033e+001 7.000000e+000
         vertex 2.235369e+001 3.091967e+001 0.000000e+000
         vertex 2.235369e+001 3.091967e+001 7.000000e+000
      endloop
   endfacet
   facet normal -9.900123e-001 1.409813e-001 0.000000e+000
      outer loop
         vertex 2.235369e+001 3.091967e+001 7.000000e+000
         vertex 2.235369e+001 3.091967e+001 0.000000e+000
         vertex 2.228598e+001 3.052478e+001 0.000000e+000
      endloop
   endfacet
   facet normal -9.804267e-001 1.968844e-001 0.000000e+000
      outer loop
         vertex 2.235369e+001 3.091967e+001 7.000000e+000
         vertex 2.228598e+001 3.052478e+001 0.000000e+000
         vertex 2.228598e+001 3.052478e+001 7.000000e+000
      endloop
   endfacet
   facet normal -9.519458e-001 3.062663e-001 0.000000e+000
      outer loop
         vertex 2.228598e+001 3.052478e+001 7.000000e+000
         vertex 2.228598e+001 3.052478e+001 0.000000e+000
         vertex 2.215250e+001 3.014701e+001 0.000000e+000
      endloop
   endfacet
   facet normal -9.330506e-001 3.597453e-001 0.000000e+000
      outer loop
         vertex 2.228598e+001 3.052478e+001 7.000000e+000
         vertex 2.215250e+001 3.014701e+001 0.000000e+000
         vertex 2.215250e+001 3.014701e+001 7.000000e+000
      endloop
   endfacet
   facet normal -8.864937e-001 4.627406e-001 0.000000e+000
      outer loop
         vertex 2.215250e+001 3.014701e+001 7.000000e+000
         vertex 2.215250e+001 3.014701e+001 0.000000e+000
         vertex 2.195711e+001 2.979723e+001 0.000000e+000
      endloop
   endfacet
   facet normal -8.588322e-001 5.122570e-001 0.000000e+000
      outer loop
         vertex 2.215250e+001 3.014701e+001 7.000000e+000
         vertex 2.195711e+001 2.979723e+001 0.000000e+000
         vertex 2.195711e+001 2.979723e+001 7.000000e+000
      endloop
   endfacet
   facet normal -7.955388e-001 6.059027e-001 0.000000e+000
      outer loop
         vertex 2.195711e+001 2.979723e+001 7.000000e+000
         vertex 2.195711e+001 2.979723e+001 0.000000e+000
         vertex 2.170540e+001 2.948550e+001 0.000000e+000
      endloop
   endfacet
   facet normal -7.599069e-001 6.500320e-001 0.000000e+000
      outer loop
         vertex 2.195711e+001 2.979723e+001 7.000000e+000
         vertex 2.170540e+001 2.948550e+001 0.000000e+000
         vertex 2.170540e+001 2.948550e+001 7.000000e+000
      endloop
   endfacet
   facet normal -6.816977e-001 7.316340e-001 0.000000e+000
      outer loop
         vertex 2.170540e+001 2.948550e+001 7.000000e+000
         vertex 2.170540e+001 2.948550e+001 0.000000e+000
         vertex 2.140464e+001 2.922080e+001 0.000000e+000
      endloop
   endfacet
   facet normal -6.391203e-001 7.691067e-001 0.000000e+000
      outer loop
         vertex 2.170540e+001 2.948550e+001 7.000000e+000
         vertex 2.140464e+001 2.922080e+001 0.000000e+000
         vertex 2.140464e+001 2.922080e+001 7.000000e+000
      endloop
   endfacet
   facet normal -5.482453e-001 8.363176e-001 0.000000e+000
      outer loop
         vertex 2.140464e+001 2.922080e+001 7.000000e+000
         vertex 2.140464e+001 2.922080e+001 0.000000e+000
         vertex 2.106347e+001 2.901073e+001 0.000000e+000
      endloop
   endfacet
   facet normal -4.999475e-001 8.660557e-001 0.000000e+000
      outer loop
         vertex 2.140464e+001 2.922080e+001 7.000000e+000
         vertex 2.106347e+001 2.901073e+001 0.000000e+000
         vertex 2.106347e+001 2.901073e+001 7.000000e+000
      endloop
   endfacet
   facet normal -3.990209e-001 9.169418e-001 0.000000e+000
      outer loop
         vertex 2.106347e+001 2.901073e+001 7.000000e+000
         vertex 2.106347e+001 2.901073e+001 0.000000e+000
         vertex 2.069171e+001 2.886134e+001 0.000000e+000
      endloop
   endfacet
   facet normal -3.463921e-001 9.380898e-001 0.000000e+000
      outer loop
         vertex 2.106347e+001 2.901073e+001 7.000000e+000
         vertex 2.069171e+001 2.886134e+001 0.000000e+000
         vertex 2.069171e+001 2.886134e+001 7.000000e+000
      endloop
   endfacet
   facet normal -2.383175e-001 9.711873e-001 0.000000e+000
      outer loop
         vertex 2.069171e+001 2.886134e+001 7.000000e+000
         vertex 2.069171e+001 2.886134e+001 0.000000e+000
         vertex 2.030004e+001 2.877693e+001 0.000000e+000
      endloop
   endfacet
   facet normal -1.828716e-001 9.831368e-001 0.000000e+000
      outer loop
         vertex 2.069171e+001 2.886134e+001 7.000000e+000
         vertex 2.030004e+001 2.877693e+001 0.000000e+000
         vertex 2.030004e+001 2.877693e+001 7.000000e+000
      endloop
   endfacet
   facet normal -7.075802e-002 9.974935e-001 0.000000e+000
      outer loop
         vertex 2.030004e+001 2.877693e+001 7.000000e+000
         vertex 2.030004e+001 2.877693e+001 0.000000e+000
         vertex 1.989974e+001 2.875993e+001 0.000000e+000
      endloop
   endfacet
   facet normal -1.409025e-002 9.999007e-001 0.000000e+000
      outer loop
         vertex 2.030004e+001 2.877693e+001 7.000000e+000
         vertex 1.989974e+001 2.875993e+001 0.000000e+000
         vertex 1.989974e+001 2.875993e+001 7.000000e+000
      endloop
   endfacet
   facet normal 9.883699e-002 9.951036e-001 0.000000e+000
      outer loop
         vertex 1.989974e+001 2.875993e+001 7.000000e+000
         vertex 1.989974e+001 2.875993e+001 0.000000e+000
         vertex 1.950233e+001 2.881082e+001 0.000000e+000
      endloop
   endfacet
   facet normal 1.550965e-001 9.878993e-001 0.000000e+000
      outer loop
         vertex 1.989974e+001 2.875993e+001 7.000000e+000
         vertex 1.950233e+001 2.881082e+001 0.000000e+000
         vertex 1.950233e+001 2.881082e+001 7.000000e+000
      endloop
   endfacet
   facet normal 2.655886e-001 9.640865e-001 0.000000e+000
      outer loop
         vertex 1.950233e+001 2.881082e+001 7.000000e+000
         vertex 1.950233e+001 2.881082e+001 0.000000e+000
         vertex 1.911924e+001 2.892814e+001 0.000000e+000
      endloop
   endfacet
   facet normal 3.198213e-001 9.474779e-001 0.000000e+000
      outer loop
         vertex 1.950233e+001 2.881082e+001 7.000000e+000
         vertex 1.911924e+001 2.892814e+001 0.000000e+000
         vertex 1.911924e+001 2.892814e+001 7.000000e+000
      endloop
   endfacet
   facet normal 4.246998e-001 9.053342e-001 0.000000e+000
      outer loop
         vertex 1.911924e+001 2.892814e+001 7.000000e+000
         vertex 1.911924e+001 2.892814e+001 0.000000e+000
         vertex 1.876148e+001 2.910852e+001 0.000000e+000
      endloop
   endfacet
   facet normal 4.753455e-001 8.797992e-001 0.000000e+000
      outer loop
         vertex 1.911924e+001 2.892814e+001 7.000000e+000
         vertex 1.876148e+001 2.910852e+001 0.000000e+000
         vertex 1.876148e+001 2.910852e+001 7.000000e+000
      endloop
   endfacet
   facet normal 5.715931e-001 8.205372e-001 0.000000e+000
      outer loop
         vertex 1.876148e+001 2.910852e+001 7.000000e+000
         vertex 1.876148e+001 2.910852e+001 0.000000e+000
         vertex 1.843935e+001 2.934676e+001 0.000000e+000
      endloop
   endfacet
   facet normal 6.171949e-001 7.868103e-001 0.000000e+000
      outer loop
         vertex 1.876148e+001 2.910852e+001 7.000000e+000
         vertex 1.843935e+001 2.934676e+001 0.000000e+000
         vertex 1.843935e+001 2.934676e+001 7.000000e+000
      endloop
   endfacet
   facet normal 7.020428e-001 7.121348e-001 0.000000e+000
      outer loop
         vertex 1.843935e+001 2.934676e+001 7.000000e+000
         vertex 1.843935e+001 2.934676e+001 0.000000e+000
         vertex 1.816212e+001 2.963602e+001 0.000000e+000
      endloop
   endfacet
   facet normal 7.412888e-001 6.711863e-001 0.000000e+000
      outer loop
         vertex 1.843935e+001 2.934676e+001 7.000000e+000
         vertex 1.816212e+001 2.963602e+001 0.000000e+000
         vertex 1.816212e+001 2.963602e+001 7.000000e+000
      endloop
   endfacet
   facet normal 8.122959e-001 5.832456e-001 0.000000e+000
      outer loop
         vertex 1.816212e+001 2.963602e+001 7.000000e+000
         vertex 1.816212e+001 2.963602e+001 0.000000e+000
         vertex 1.793777e+001 2.996797e+001 0.000000e+000
      endloop
   endfacet
   facet normal 8.440570e-001 5.362535e-001 0.000000e+000
      outer loop
         vertex 1.816212e+001 2.963602e+001 7.000000e+000
         vertex 1.793777e+001 2.996797e+001 0.000000e+000
         vertex 1.793777e+001 2.996797e+001 7.000000e+000
      endloop
   endfacet
   facet normal 8.991807e-001 4.375775e-001 0.000000e+000
      outer loop
         vertex 1.793777e+001 2.996797e+001 7.000000e+000
         vertex 1.793777e+001 2.996797e+001 0.000000e+000
         vertex 1.777273e+001 3.033306e+001 0.000000e+000
      endloop
   endfacet
   facet normal 9.225433e-001 3.858936e-001 0.000000e+000
      outer loop
         vertex 1.793777e+001 2.996797e+001 7.000000e+000
         vertex 1.777273e+001 3.033306e+001 0.000000e+000
         vertex 1.777273e+001 3.033306e+001 7.000000e+000
      endloop
   endfacet
   facet normal 9.601977e-001 2.793211e-001 0.000000e+000
      outer loop
         vertex 1.777273e+001 3.033306e+001 7.000000e+000
         vertex 1.777273e+001 3.033306e+001 0.000000e+000
         vertex 1.767178e+001 3.072079e+001 0.000000e+000
      endloop
   endfacet
   facet normal 9.744897e-001 2.244324e-001 0.000000e+000
      outer loop
         vertex 1.777273e+001 3.033306e+001 7.000000e+000
         vertex 1.767178e+001 3.072079e+001 0.000000e+000
         vertex 1.767178e+001 3.072079e+001 7.000000e+000
      endloop
   endfacet
   facet normal 9.935917e-001 1.130291e-001 0.000000e+000
      outer loop
         vertex 1.767178e+001 3.072079e+001 7.000000e+000
         vertex 1.767178e+001 3.072079e+001 0.000000e+000
         vertex 1.763780e+001 3.112000e+001 0.000000e+000
      endloop
   endfacet
endsolid